<?xml version="1.0" standalone="no"?>
<!DOCTYPE svg PUBLIC "-//W3C//DTD SVG 20010904//EN"
 "http://www.w3.org/TR/2001/REC-SVG-20010904/DTD/svg10.dtd">
<svg version="1.0" xmlns="http://www.w3.org/2000/svg"
 width="1241.000000pt" height="1241.000000pt" viewBox="0 0 1241.000000 1241.000000"
 preserveAspectRatio="xMidYMid meet">
<metadata>
Created by potrace 1.11, written by Peter Selinger 2001-2013
</metadata>
<g transform="translate(0.000000,1241.000000) scale(0.100000,-0.100000)"
fill="#000000" stroke="none">
<path d="M11930 12406 c0 -10 79 -56 98 -56 18 0 22 6 22 30 l0 30 -60 0 c-33
0 -60 -2 -60 -4z"/>
<path d="M0 11570 l0 -403 128 6 c140 5 201 20 355 88 88 39 386 196 419 221
16 12 5 22 -93 98 -207 159 -284 210 -414 275 -134 67 -233 99 -336 111 l-59
7 0 -403z"/>
<path d="M11857 11660 c-86 -16 -69 -55 20 -45 28 3 64 10 80 16 27 10 27 11
9 25 -21 15 -48 16 -109 4z"/>
<path d="M11446 11555 c-194 -37 -241 -108 -90 -136 156 -29 431 33 422 95 -2
12 -16 27 -31 34 -43 21 -208 24 -301 7z"/>
<path d="M12256 11139 c-126 -152 -348 -442 -419 -549 -31 -46 -34 -56 -21
-63 8 -5 17 -7 19 -5 1 1 33 48 70 103 105 154 393 522 469 597 10 11 16 29
14 45 -3 24 -16 10 -132 -128z"/>
<path d="M11222 11240 c-97 -70 -225 -278 -226 -368 -1 -40 2 -47 19 -50 88
-12 317 321 291 424 -8 32 -34 31 -84 -6z"/>
<path d="M32 10705 l-32 -46 2 -569 3 -570 83 118 c95 135 175 288 199 382 22
88 22 220 -2 290 -19 59 -80 184 -116 239 -13 19 -18 32 -11 30 16 -5 242
-311 360 -486 l95 -143 -120 -123 c-185 -191 -267 -309 -319 -462 -36 -108
-38 -232 -5 -360 23 -88 135 -392 150 -408 11 -11 230 211 301 305 121 160
190 354 176 493 -9 92 -30 163 -97 338 -34 87 -59 160 -57 163 6 6 153 -240
246 -411 82 -151 127 -284 174 -507 28 -136 32 -172 32 -323 0 -129 -4 -191
-18 -255 -73 -338 -273 -600 -589 -770 -72 -39 -79 -41 -100 -27 -12 8 -103
90 -202 181 l-180 167 -3 -157 c-1 -87 1 -161 5 -165 5 -4 76 -15 160 -25 83
-10 150 -22 147 -26 -3 -4 -75 -8 -160 -8 l-154 0 0 -197 0 -196 22 19 c91 78
214 197 273 264 58 67 84 88 150 121 199 102 346 222 465 378 l26 34 -4 -135
c-3 -101 0 -149 12 -197 15 -58 15 -69 0 -144 -29 -143 1 -249 113 -395 60
-79 65 -79 77 -7 12 69 18 72 68 36 l43 -32 3 73 c4 93 -13 180 -46 242 -32
58 -118 147 -190 196 -62 43 -67 62 -60 255 5 131 6 133 50 231 88 194 111
300 112 524 0 170 -15 295 -53 450 -11 41 -18 77 -16 78 10 11 180 -373 263
-593 138 -370 189 -556 203 -750 23 -313 -46 -622 -184 -825 -52 -77 -127
-158 -160 -173 -24 -11 -93 -16 -287 -20 -275 -6 -346 -14 -485 -53 -90 -25
-273 -107 -352 -157 l-43 -27 0 -205 0 -205 25 0 c49 0 222 39 310 70 90 32
192 81 295 142 l55 32 -36 -41 c-134 -150 -253 -394 -323 -664 -39 -148 -89
-402 -84 -425 5 -23 288 204 423 340 131 131 188 210 264 362 88 176 143 355
202 659 l29 149 74 76 c200 202 298 482 298 848 0 79 3 140 6 137 28 -28 192
-883 192 -1000 0 -13 -17 -30 -48 -50 -70 -44 -202 -179 -262 -269 -142 -212
-207 -475 -180 -732 6 -63 16 -128 20 -146 8 -27 3 -42 -46 -129 -85 -150
-125 -272 -132 -395 -4 -94 16 -278 38 -338 12 -34 148 223 179 339 31 117 32
203 6 365 -3 21 7 4 26 -45 39 -98 106 -203 160 -249 66 -56 159 -118 159
-106 0 33 -46 184 -75 245 -48 103 -83 144 -190 225 -53 40 -101 83 -106 96
-5 14 -14 76 -20 139 -32 311 74 627 284 852 56 59 170 153 186 153 10 0 27
-187 42 -450 33 -574 -34 -1471 -137 -1827 -70 -242 -203 -461 -339 -558 -72
-52 -156 -85 -212 -85 -31 0 -41 5 -55 29 -24 44 -61 63 -131 68 -179 15 -274
-140 -132 -215 75 -39 226 -6 262 56 15 26 24 30 75 36 176 18 354 183 473
437 34 74 31 39 -9 -118 -65 -247 -158 -417 -304 -554 -69 -66 -149 -112 -214
-124 -33 -6 -40 -4 -66 26 -27 31 -35 34 -98 37 -57 3 -77 -1 -113 -20 -60
-31 -88 -69 -75 -104 21 -60 111 -89 200 -64 49 14 104 53 104 74 0 8 28 20
65 29 36 9 86 28 111 43 94 55 204 174 272 294 18 30 32 51 32 45 -1 -17 -76
-256 -99 -314 -68 -169 -211 -313 -334 -336 -31 -6 -40 -4 -55 15 -14 18 -32
24 -74 28 -73 6 -118 -16 -118 -57 0 -38 21 -53 79 -59 39 -3 61 1 104 22 31
14 65 26 77 26 57 0 181 89 245 175 8 11 15 15 15 8 0 -9 -106 -281 -157 -400
-2 -6 4 -16 15 -22 18 -10 24 0 76 125 30 74 70 175 88 225 18 49 36 89 40 89
4 0 8 -20 8 -44 0 -55 30 -154 59 -194 11 -17 21 -42 21 -57 0 -37 36 -98 70
-118 15 -10 42 -17 59 -17 24 0 32 5 37 24 16 65 -57 156 -125 156 -31 0 -69
66 -87 151 -23 110 -13 192 52 404 31 99 57 185 58 190 2 6 6 -30 10 -80 13
-155 45 -258 109 -349 13 -19 21 -46 21 -75 2 -94 87 -188 180 -198 35 -4 48
-1 65 16 78 78 -69 270 -199 259 -32 -3 -36 1 -67 52 -73 120 -99 298 -73 500
6 41 25 140 42 220 l33 145 13 -110 c27 -237 86 -379 209 -503 48 -48 83 -92
83 -103 0 -61 87 -156 168 -183 167 -57 238 52 119 181 -73 79 -179 113 -245
79 -40 -21 -52 -15 -123 61 -60 65 -107 146 -139 241 -52 156 -65 423 -30 626
66 386 110 896 110 1272 0 374 -47 962 -100 1244 -5 25 -7 46 -6 47 6 6 170
-107 237 -163 205 -171 346 -363 424 -579 65 -179 86 -354 61 -515 -14 -93
-15 -96 -57 -130 -98 -80 -163 -148 -194 -205 -35 -62 -78 -195 -90 -279 l-8
-48 64 50 c133 104 199 193 240 322 l17 55 -5 -120 c-5 -101 -2 -133 16 -205
25 -100 78 -216 153 -332 l53 -82 13 84 c20 131 19 303 -2 380 -23 86 -81 207
-145 308 l-53 82 17 119 c14 98 15 138 7 218 -5 54 -9 99 -7 101 1 2 17 -23
35 -55 72 -128 170 -232 262 -279 44 -23 67 -28 134 -29 l81 -1 102 -82 c148
-120 234 -158 404 -181 94 -13 307 -15 307 -2 0 16 -202 169 -269 205 -101 53
-212 78 -381 85 l-145 6 113 39 c144 50 220 94 303 177 91 90 264 351 222 334
-10 -4 -63 -23 -118 -42 -167 -58 -245 -108 -346 -218 -57 -62 -104 -129 -158
-222 -36 -63 -46 -73 -77 -79 -115 -21 -241 47 -344 187 -61 81 -140 233 -171
327 -78 237 -276 498 -511 673 -67 49 -168 112 -185 114 -4 1 -82 409 -79 413
3 2 10 -7 17 -20 43 -82 150 -169 232 -189 43 -10 64 -27 170 -133 140 -140
243 -212 363 -255 101 -37 280 -69 424 -77 l105 -6 -95 97 c-118 120 -203 188
-291 235 l-69 36 93 18 c96 18 225 63 365 126 l83 37 -83 26 c-184 57 -243 69
-361 74 -71 3 -149 1 -195 -7 -94 -15 -247 -65 -367 -120 -73 -33 -97 -40
-125 -35 -88 17 -195 106 -259 219 -17 30 -45 107 -62 172 -81 315 -220 728
-334 995 -19 43 -31 79 -27 79 4 -1 20 -17 35 -38 53 -70 192 -204 272 -263
55 -39 87 -71 99 -96 50 -105 153 -239 237 -306 l47 -39 -29 -48 c-70 -114
-76 -226 -22 -373 l29 -77 36 62 c77 132 85 222 34 367 -26 73 -24 75 29 35
70 -53 130 -74 205 -74 68 0 230 35 230 49 -1 10 -122 89 -170 110 -60 27
-149 27 -260 -1 l-87 -21 -43 34 c-23 19 -64 62 -91 95 -46 59 -129 190 -129
206 0 4 24 -4 53 -17 139 -65 324 -72 477 -18 47 17 99 36 115 43 28 11 40 8
170 -48 246 -106 360 -129 575 -119 111 6 402 55 432 74 14 8 -191 96 -332
143 -190 63 -389 75 -599 35 -41 -8 -76 -13 -78 -11 -2 2 18 11 44 21 234 87
371 225 500 504 29 63 51 116 49 118 -5 5 -184 -62 -272 -102 -141 -64 -251
-158 -336 -287 -37 -56 -138 -250 -138 -266 0 -32 -94 -80 -207 -106 -238 -54
-486 37 -709 260 -136 136 -209 244 -327 484 -58 118 -138 270 -176 338 -39
67 -71 126 -71 129 0 3 44 -36 98 -88 212 -206 396 -274 621 -230 117 23 401
110 401 123 0 12 -147 173 -232 254 -196 185 -378 255 -579 219 -46 -8 -145
-34 -219 -58 -74 -24 -147 -47 -162 -51 -25 -6 -32 3 -141 167 -63 94 -153
224 -200 287 -47 63 -84 116 -82 118 1 2 36 -22 76 -53 127 -96 271 -155 379
-155 73 0 185 36 333 107 75 37 137 69 137 73 0 12 -204 172 -270 212 -92 55
-164 79 -255 85 -108 7 -178 -12 -343 -93 -72 -36 -136 -64 -142 -62 -5 2 -40
41 -77 87 -38 47 -73 86 -79 88 -5 2 -24 -17 -42 -42z"/>
<path d="M11189 10293 c-8 -20 -7 -39 1 -68 13 -43 69 -105 95 -105 40 0 70
-141 54 -255 -14 -106 -34 -163 -117 -331 l-68 -142 4 132 c5 143 -9 224 -51
301 -18 32 -21 47 -14 75 25 99 -78 240 -175 240 -32 0 -40 -5 -54 -32 -49
-94 49 -254 165 -268 45 -5 46 -6 68 -62 69 -173 47 -392 -69 -683 -33 -82
-61 -151 -61 -152 -1 -1 -2 71 -3 160 -1 131 -5 177 -22 240 -28 103 -76 196
-131 256 -37 40 -45 55 -43 80 4 36 -24 104 -62 149 -68 80 -189 113 -238 64
-17 -17 -23 -33 -22 -66 3 -121 165 -251 272 -217 36 11 38 11 75 -31 54 -61
113 -188 133 -287 13 -66 15 -118 11 -240 -6 -185 -11 -212 -87 -446 -156
-481 -264 -970 -314 -1430 -30 -272 -38 -404 -44 -735 l-7 -335 -99 95 c-289
279 -448 598 -463 932 -6 132 6 231 43 349 l24 76 82 48 c95 55 164 117 213
191 35 53 121 251 112 260 -5 6 -120 -60 -181 -103 -53 -38 -128 -129 -159
-195 -21 -44 -47 -69 -32 -30 37 96 46 259 20 380 -16 76 -49 170 -97 276
l-32 68 -33 -111 c-78 -269 -63 -423 70 -709 l25 -54 -19 -54 c-34 -96 -51
-186 -58 -299 l-6 -110 -28 75 c-86 233 -220 374 -367 387 l-59 6 -72 83
c-123 144 -235 214 -414 259 -89 23 -274 50 -282 41 -2 -2 51 -60 119 -128
126 -128 191 -172 310 -212 47 -15 226 -53 283 -58 19 -2 -7 -10 -70 -22 -183
-34 -272 -74 -397 -178 -55 -47 -231 -248 -223 -256 5 -5 153 25 240 49 162
44 282 131 437 316 78 93 88 97 188 67 44 -13 68 -29 125 -88 88 -87 146 -201
200 -386 77 -266 117 -379 169 -473 84 -152 161 -252 305 -396 l133 -134 9
-151 c4 -83 11 -175 14 -203 4 -29 4 -53 2 -53 -3 0 -18 28 -35 63 -48 102
-136 185 -224 211 -9 2 -61 65 -116 138 -152 204 -251 285 -443 362 -78 32
-376 113 -384 104 -2 -1 29 -48 68 -103 85 -119 210 -252 278 -296 27 -17 49
-33 49 -35 0 -2 -17 -2 -37 2 -53 8 -287 -29 -421 -67 l-113 -32 118 -55 c228
-106 374 -140 546 -128 104 7 258 37 365 71 l76 24 46 -20 c25 -11 64 -39 88
-62 91 -89 142 -216 166 -417 37 -294 111 -691 180 -955 19 -71 33 -131 32
-133 -2 -1 -22 31 -46 70 -67 113 -141 207 -235 297 -77 74 -89 90 -112 154
-35 100 -85 192 -140 261 -27 32 -52 64 -57 71 -6 7 4 28 28 60 86 111 103
199 71 352 l-18 86 -25 -29 c-104 -125 -132 -210 -113 -341 6 -46 15 -91 18
-100 4 -10 -17 3 -47 29 -95 83 -125 93 -277 93 -72 0 -135 -4 -140 -9 -13
-13 105 -115 172 -148 59 -29 63 -29 195 -26 l134 3 47 -59 c60 -73 161 -278
145 -293 -2 -3 -22 7 -43 21 -123 82 -338 108 -513 63 l-95 -24 -128 79 c-223
139 -346 185 -562 209 -97 11 -416 6 -437 -7 -5 -3 45 -39 112 -80 291 -178
424 -222 710 -231 l175 -6 -64 -13 c-120 -25 -226 -68 -301 -122 -102 -74
-237 -231 -315 -366 l-28 -48 34 7 c166 34 276 61 340 86 152 58 290 182 418
372 68 103 70 104 128 121 86 27 262 32 343 12 169 -43 319 -148 444 -311 142
-184 192 -285 299 -606 47 -140 110 -317 141 -393 30 -77 54 -141 52 -143 -2
-2 -34 42 -71 98 -197 296 -404 422 -660 404 -76 -5 -395 -52 -402 -58 -1 -2
41 -68 94 -147 166 -249 317 -379 493 -425 77 -20 260 -16 375 8 39 9 103 19
142 23 l73 7 16 -39 c44 -105 169 -364 237 -492 43 -79 77 -145 77 -147 0 -2
-44 40 -97 94 -226 226 -375 268 -655 187 -120 -35 -198 -66 -198 -78 0 -6 60
-70 133 -143 115 -115 143 -137 217 -174 159 -78 250 -78 483 -1 66 22 129 40
141 40 16 -1 35 -25 79 -100 36 -63 62 -97 70 -94 22 11 227 238 269 299 49
72 101 182 117 249 20 84 15 201 -14 301 -20 68 -118 332 -131 353 -4 6 -182
-182 -232 -245 -123 -153 -176 -283 -176 -433 0 -95 6 -119 78 -315 15 -43
-30 30 -103 164 -76 139 -246 491 -239 495 115 79 293 224 353 287 200 209
252 367 210 641 -14 96 -72 358 -80 366 -2 2 -66 -42 -142 -99 -241 -181 -357
-316 -416 -487 -28 -83 -29 -91 -24 -217 4 -101 13 -162 41 -275 19 -79 33
-146 31 -149 -10 -9 -164 381 -199 501 -73 252 -95 627 -51 856 30 155 97 318
173 422 23 30 54 72 69 94 36 50 150 148 236 204 74 48 175 96 275 132 l63 23
25 -24 c15 -13 97 -112 184 -219 168 -208 301 -350 391 -418 31 -23 59 -42 62
-42 4 0 7 114 7 254 l0 253 -127 47 c-127 47 -423 136 -452 136 -9 0 -11 3 -5
9 5 5 85 -2 184 -15 96 -13 226 -26 288 -30 l112 -7 0 246 c0 161 -4 247 -10
247 -21 0 -208 -100 -290 -155 -47 -32 -141 -101 -210 -155 -110 -85 -135
-101 -210 -124 -178 -57 -353 -159 -479 -279 -32 -31 -51 -44 -47 -32 26 72
40 164 41 275 2 102 7 137 26 190 31 86 31 191 1 274 -27 74 -103 209 -113
199 -3 -5 -16 -34 -26 -67 l-20 -59 -46 42 -46 42 -8 -38 c-4 -21 -8 -85 -8
-143 0 -100 2 -108 35 -174 22 -45 63 -99 114 -153 l79 -84 -6 -87 c-11 -140
-43 -242 -114 -355 -144 -229 -203 -483 -189 -812 4 -88 9 -176 12 -195 24
-141 -78 196 -145 480 -38 160 -94 453 -116 600 -27 181 -9 390 52 610 71 256
199 456 376 587 72 52 71 52 319 17 226 -33 420 -36 553 -10 119 23 288 78
391 128 l84 40 0 173 0 173 -76 7 c-84 8 -177 1 -304 -21 -112 -20 -175 -39
-290 -86 l-95 -38 67 60 c158 143 314 385 419 648 27 67 129 359 129 368 0 2
-21 -10 -47 -25 -27 -16 -109 -63 -183 -106 -304 -175 -434 -290 -589 -520
-103 -153 -220 -414 -302 -672 -21 -68 -26 -74 -85 -118 -120 -88 -240 -239
-308 -387 -66 -141 -120 -346 -133 -496 -5 -58 -8 -71 -14 -52 -18 57 -41 425
-46 722 l-6 316 54 28 c253 128 441 348 533 626 36 112 58 273 54 403 l-3 110
77 99 c79 103 144 222 173 316 18 62 31 282 21 353 l-7 46 -28 -32 c-61 -69
-146 -196 -182 -272 -57 -118 -70 -180 -71 -330 l-1 -130 -19 90 c-28 137 -72
219 -172 322 -46 49 -87 86 -89 83 -9 -9 13 -173 34 -251 28 -103 61 -158 164
-267 l88 -93 -6 -127 c-6 -138 -23 -231 -62 -343 -52 -149 -161 -317 -274
-422 -91 -84 -261 -191 -277 -174 -8 8 12 369 32 562 49 486 167 1038 320
1494 53 156 100 253 182 377 153 227 310 340 489 352 75 4 83 3 89 -14 32
-103 173 -151 281 -96 47 24 63 47 63 87 0 121 -207 178 -313 86 -28 -24 -43
-29 -112 -34 -135 -9 -255 -68 -372 -183 -51 -51 -126 -144 -170 -210 -12 -18
-12 -18 -7 1 29 98 120 281 196 394 80 117 221 251 310 295 98 48 218 71 218
42 0 -23 67 -74 105 -82 55 -10 133 1 163 23 62 46 54 114 -18 151 -74 37
-178 25 -226 -26 -13 -14 -43 -23 -94 -31 -147 -22 -293 -118 -413 -271 -34
-43 -63 -77 -65 -75 -7 6 122 263 164 327 103 154 237 254 356 266 40 4 54 0
86 -21 50 -35 108 -43 156 -23 32 13 37 20 34 42 -4 37 -47 66 -105 71 -39 4
-53 1 -75 -17 -20 -15 -45 -22 -90 -25 -93 -5 -174 -45 -261 -130 -21 -20 -40
-36 -42 -34 -3 4 45 91 165 296 62 105 75 133 63 138 -9 3 -18 4 -20 2 -8 -9
-224 -382 -235 -408 -7 -16 -15 -29 -18 -29 -3 0 -5 48 -5 108 0 91 -3 114
-22 151 -17 33 -20 48 -11 58 6 7 8 29 5 49 -16 96 -122 165 -148 97z"/>
<path d="M12334 2815 c-117 -158 -195 -309 -240 -460 -23 -76 -27 -109 -27
-210 0 -171 31 -264 177 -529 42 -77 75 -143 74 -146 -6 -15 -369 444 -460
580 -13 20 -19 23 -29 13 -10 -10 -5 -24 27 -70 41 -61 212 -291 303 -408 l54
-70 -89 86 c-157 151 -235 209 -379 282 -203 102 -370 115 -637 47 -84 -22
-436 -147 -452 -161 -16 -14 359 -378 459 -446 179 -121 293 -162 466 -170
138 -7 225 8 391 68 296 105 379 130 394 118 8 -6 17 -10 19 -7 3 3 4 353 3
778 l-3 774 -51 -69z"/>
<path d="M947 2508 c-63 -125 -160 -303 -207 -378 -5 -8 -50 -81 -99 -162
-152 -249 -287 -437 -518 -725 -87 -109 -123 -161 -121 -177 2 -17 25 6 112
109 177 213 487 636 562 770 6 11 50 84 97 162 122 200 290 521 283 538 -14
37 -38 7 -109 -137z"/>
<path d="M104 2586 c-16 -41 109 -151 204 -180 66 -21 -26 109 -113 159 -58
33 -84 39 -91 21z"/>
<path d="M1819 2431 c-91 -94 -186 -335 -160 -404 14 -37 34 -34 85 13 68 63
154 241 171 354 15 98 -23 113 -96 37z"/>
<path d="M2 2183 l3 -58 50 -16 c63 -21 166 -32 184 -20 45 30 -75 112 -212
145 l-28 7 3 -58z"/>
<path d="M49 1948 c-45 -36 -49 -56 -49 -223 l0 -160 20 30 c52 77 90 306 58
348 -11 15 -16 16 -29 5z"/>
<path d="M1475 1820 c-103 -27 -176 -57 -210 -85 l-30 -25 34 -31 c34 -31 35
-31 107 -25 40 4 99 13 131 22 66 17 179 67 205 91 24 21 23 50 -1 63 -31 16
-159 11 -236 -10z"/>
<path d="M1170 1573 c-80 -13 -150 -63 -87 -63 28 0 116 26 137 40 13 9 13 11
0 20 -8 5 -17 9 -20 8 -3 0 -16 -3 -30 -5z"/>
<path d="M533 928 c-121 -132 -165 -641 -56 -656 98 -14 196 462 128 624 -24
58 -41 66 -72 32z"/>
<path d="M1097 823 c-4 -3 -7 -16 -7 -27 0 -65 181 -235 268 -252 29 -6 32 -4
32 18 0 33 -49 104 -113 165 -67 63 -162 114 -180 96z"/>
<path d="M12270 649 c-116 -40 -316 -140 -490 -244 -80 -48 -162 -96 -183
-107 -21 -10 -37 -23 -35 -28 3 -8 280 -214 340 -253 24 -15 56 -17 258 -17
l230 0 0 340 c0 392 14 356 -120 309z"/>
</g>
</svg>
