<?xml version="1.0" encoding="utf-8"?>
<!DOCTYPE svg PUBLIC "-//W3C//DTD SVG 1.1//EN" "http://www.w3.org/Graphics/SVG/1.1/DTD/svg11.dtd">
<svg version="1.1" xmlns="http://www.w3.org/2000/svg" xmlns:xlink="http://www.w3.org/1999/xlink" x="0px" y="0px" viewBox="0 0 380.939 350.707" enable-background="new 0 0 380.939 350.707" xml:space="preserve" style="fill: rgb(0, 0, 0);">
    <g id="__id27_s0rb6s3h5d">
        <g id="__id28_s0rb6s3h5d">
        <path d="M180.178,25.569c2.608,0.622,5.208,1.137,7.824,2.086c3.728,1.359,7.45,3.612,9.181,7.555    c1.532,3.489,1.849,6.715,2.693,10.478l-0.043,0.041c-2.609-0.62-5.209-1.136-7.816-2.091c-3.738-1.351-7.458-3.607-9.188-7.548    c-1.533-3.491-1.523-6.992-2.691-10.479" style="fill: rgb(60, 89, 71);"></path>
        <path d="M173.275,25.588c-0.227,2.67-0.348,5.317-0.897,8.045c-0.789,3.889-2.461,7.904-6.101,10.205    c-3.224,2.036-6.366,2.828-9.96,4.222l-0.049-0.033c0.228-2.672,0.348-5.322,0.905-8.043c0.777-3.898,2.456-7.911,6.095-10.208    c3.221-2.036,6.686-2.549,9.961-4.223" style="fill: rgb(60, 89, 71);"></path>
        <path d="M165.421,0c1.975,1.813,3.994,3.529,5.818,5.632c2.593,3,4.749,6.779,4.343,11.067    c-0.362,3.793-1.656,6.766-2.75,10.463l-0.057,0.016c-1.977-1.812-3.997-3.531-5.81-5.633c-2.608-2.999-4.759-6.78-4.35-11.068    c0.358-3.793,2.071-6.845,2.749-10.462" style="fill: rgb(60, 89, 71);"></path>
        <path d="M197.56,16.624c-1.061,1.597-2.052,3.215-3.338,4.738c-1.834,2.166-4.269,4.108-7.347,4.296    c-2.725,0.165-4.971-0.422-7.707-0.788l-0.017-0.04c1.064-1.597,2.055-3.216,3.341-4.731c1.834-2.177,4.271-4.116,7.348-4.301    c2.724-0.166,5.07,0.708,7.705,0.787" style="fill: rgb(60, 89, 71);"></path>
        <g>
            <g>
            <path d="M338.179,201.6c-1.171,6.962-1.279,17.685,6.099,21.505c0.343,0.178,0.646-0.34,0.303-0.518      c-7.122-3.688-6.953-14.103-5.822-20.828C338.821,201.38,338.243,201.218,338.179,201.6L338.179,201.6z" style="fill: rgb(61, 90, 72);"></path>
            </g>
        </g>
        <g>
            <g>
            <path d="M337.05,207.933c-1.687,5.77-4.06,15.748,1.146,20.509c0.284,0.261,0.71-0.162,0.424-0.424      c-4.99-4.565-2.609-14.39-0.991-19.925C337.738,207.72,337.159,207.562,337.05,207.933L337.05,207.933z" style="fill: rgb(61, 90, 72);"></path>
            </g>
        </g>
        <g>
            <g>
            <path d="M333.515,220.43c-1.313,3.928-3.054,10.358,0.406,13.753c0.276,0.271,0.7-0.152,0.424-0.424      c-3.281-3.223-1.499-9.439-0.252-13.17C334.216,220.222,333.637,220.065,333.515,220.43L333.515,220.43z" style="fill: rgb(61, 90, 72);"></path>
            </g>
        </g>
        <g>
            <g>
            <path d="M332.339,223.88c-1.403,3.343-4.418,8.177-8.691,7.642c-0.384-0.048-0.38,0.554,0,0.601      c4.559,0.57,7.777-4.527,9.271-8.08C333.068,223.685,332.487,223.53,332.339,223.88L332.339,223.88z" style="fill: rgb(61, 90, 72);"></path>
            </g>
        </g>
        <g>
            <g>
            <path d="M337.829,203.767c-1.524,5.877-6.125,15.525-13.733,14.49c-0.379-0.051-0.542,0.527-0.16,0.578      c7.99,1.088,12.843-8.625,14.473-14.91C338.504,203.55,337.925,203.392,337.829,203.767L337.829,203.767z" style="fill: rgb(61, 90, 72);"></path>
            </g>
        </g>
        <g>
            <g>
            <path d="M335.795,212.539c-1.684,5.258-5.86,13.83-12.554,13.578c-0.387-0.015-0.386,0.586,0,0.6      c6.998,0.264,11.364-8.495,13.132-14.018C336.492,212.33,335.913,212.173,335.795,212.539L335.795,212.539z" style="fill: rgb(61, 90, 72);"></path>
            </g>
        </g>
        <g>
            <g>
            <path d="M325.095,265.646c-1.407-2.232-4.348-3.507-6.943-3.085c-0.382,0.062-0.22,0.64,0.159,0.578      c2.32-0.377,5.016,0.823,6.268,2.81C324.783,266.274,325.302,265.974,325.095,265.646L325.095,265.646z" style="fill: rgb(215, 189, 152);"></path>
            </g>
        </g>
        <g>
            <g>
            <path d="M324.79,241.552c-2.103,5.787-10.968,8.382-16.285,5.822c-0.347-0.168-0.651,0.35-0.303,0.518      c5.688,2.738,14.919,0.007,17.166-6.18C325.5,241.347,324.92,241.191,324.79,241.552L324.79,241.552z" style="fill: rgb(215, 189, 152);"></path>
            </g>
        </g>
        <g>
            <g>
            <path d="M296.985,270.729c2.137-3.854,7.258-2.408,10.685-1.521c0.375,0.099,0.534-0.48,0.16-0.578      c-3.718-0.963-9.074-2.332-11.362,1.795C296.28,270.765,296.797,271.067,296.985,270.729L296.985,270.729z" style="fill: rgb(215, 189, 152);"></path>
            </g>
        </g>
        <path d="M296.621,273.119c-0.511,1.398-1.265,2.409-1.683,2.256c-0.42-0.15-0.348-1.41,0.162-2.811    c0.51-1.396,1.264-2.408,1.685-2.255C297.204,270.462,297.13,271.722,296.621,273.119z" style="fill: rgb(215, 189, 152);"></path>
        
            <ellipse transform="matrix(0.9973 0.0737 -0.0737 0.9973 20.5795 -21.0812)" cx="295.922" cy="268.295" rx="2.696" ry="0.808" style="fill: rgb(215, 189, 152);"></ellipse>
        <g>
            <g>
            <path d="M325.145,279.507c-6.604-1.629-6.617-9.514-6.632-15.021c-0.001-0.387-0.601-0.387-0.6,0      c0.014,5.808,0.17,13.896,7.071,15.599C325.361,280.178,325.52,279.6,325.145,279.507L325.145,279.507z" style="fill: rgb(215, 189, 152);"></path>
            </g>
        </g>
        <g>
            <g>
            <path d="M314.031,278.055c3.285-5.769,6.645-14.897,2.688-21.093c-0.207-0.325-0.727-0.024-0.518,0.303      c3.812,5.973,0.479,14.924-2.689,20.486C313.321,278.089,313.839,278.391,314.031,278.055L314.031,278.055z" style="fill: rgb(215, 189, 152);"></path>
            </g>
        </g>
        <g>
            <g>
            <path d="M338.878,255.708c-7.329,2.797-14.854-5.459-12.901-12.533c0.104-0.373-0.476-0.531-0.577-0.159      c-2.067,7.487,5.875,16.233,13.64,13.271C339.396,256.149,339.241,255.569,338.878,255.708L338.878,255.708z" style="fill: rgb(215, 189, 152);"></path>
            </g>
        </g>
        
            <ellipse transform="matrix(-0.9956 -0.0939 0.0939 -0.9956 629.9126 589.3478)" cx="328.815" cy="279.861" rx="4.162" ry="1.249" style="fill: rgb(215, 189, 152);"></ellipse>
        
            <ellipse transform="matrix(-0.1806 -0.9836 0.9836 -0.1806 102.7907 649.4662)" cx="321.925" cy="281.917" rx="4.163" ry="1.248" style="fill: rgb(215, 189, 152);"></ellipse>
        
            <ellipse transform="matrix(0.2157 -0.9765 0.9765 0.2157 -7.5287 527.1777)" cx="324.397" cy="268.275" rx="2.923" ry="0.877" style="fill: rgb(215, 189, 152);"></ellipse>
        
            <ellipse transform="matrix(0.9278 -0.3731 0.3731 0.9278 -80.3889 135.3783)" cx="309.568" cy="275.381" rx="6.955" ry="2.085" style="fill: rgb(215, 189, 152);"></ellipse>
        
            <ellipse transform="matrix(-0.9994 -0.0346 0.0346 -0.9994 602.0549 506.4085)" cx="305.414" cy="247.99" rx="4.004" ry="1.2" style="fill: rgb(215, 189, 152);"></ellipse>
        <path d="M338.62,266.199c3.489,1.608,5.923,3.762,5.438,4.809c-0.484,1.045-3.7,0.59-7.188-1.021    c-3.486-1.611-5.924-3.766-5.439-4.812C331.915,264.128,335.132,264.585,338.62,266.199z" style="fill: rgb(215, 189, 152);"></path>
        <path d="M344.107,252.212c3.702-1.03,6.953-0.971,7.263,0.144c0.31,1.108-2.441,2.847-6.142,3.877    c-3.699,1.03-6.95,0.968-7.257-0.14C337.661,254.979,340.409,253.244,344.107,252.212z" style="fill: rgb(215, 189, 152);"></path>
        <g>
            <g>
            <path d="M325.685,240.548c-0.584,5.117-2.359,10.107-1.714,15.305c0.568,4.564,4.119,7.605,7.818,9.834      c0.332,0.2,0.634-0.318,0.303-0.518c-10.479-6.315-6.938-14.701-5.808-24.621C326.329,240.164,325.728,240.167,325.685,240.548      L325.685,240.548z" style="fill: rgb(215, 189, 152);"></path>
            </g>
        </g>
        <path d="M324.487,141.915c0.927,0.69,1.854,1.333,2.757,2.157c1.287,1.174,2.513,2.704,2.874,4.586    c0.326,1.665,0.214,3.022,0.262,4.679l-0.021,0.012c-0.928-0.69-1.853-1.338-2.758-2.158c-1.287-1.175-2.512-2.71-2.874-4.589    c-0.323-1.667-0.072-3.076-0.263-4.677" style="fill: rgb(60, 89, 71);"></path>
        <g>
            <g>
            <path d="M324.694,133.456c-0.733,3.339-1.191,6.712-0.138,10.023c0.088,0.276,0.522,0.158,0.435-0.119      c-1.03-3.237-0.58-6.518,0.137-9.785C325.19,133.292,324.756,133.172,324.694,133.456L324.694,133.456z" style="fill: rgb(60, 89, 71);"></path>
            </g>
        </g>
        <path d="M343.636,131.587c0.94-0.264,1.849-0.557,2.864-0.738c1.449-0.26,3.107-0.291,4.556,0.432    c1.282,0.638,2.135,1.411,3.269,2.232v0.018c-0.942,0.266-1.852,0.553-2.866,0.738c-1.45,0.26-3.107,0.292-4.556-0.433    c-1.283-0.64-2.1-1.534-3.269-2.229" style="fill: rgb(60, 89, 71);"></path>
        <g>
            <g>
            <path d="M323.745,105.418c4.231,10.986,14.617,26.216,28.021,19.036c0.257-0.137,0.029-0.525-0.227-0.389      c-13.112,7.023-23.239-8.067-27.361-18.768C324.075,105.03,323.64,105.146,323.745,105.418L323.745,105.418z" style="fill: rgb(60, 89, 71);"></path>
            </g>
        </g>
        <path d="M343.866,147.049c1.952,0.174,3.856,0.291,5.938,0.645c2.971,0.505,6.271,1.506,8.898,3.566    c2.322,1.823,3.747,3.576,5.72,5.596l-0.012,0.024c-1.952-0.174-3.858-0.289-5.939-0.646c-2.969-0.503-6.269-1.504-8.895-3.565    c-2.325-1.823-3.642-3.748-5.723-5.596" style="fill: rgb(60, 89, 71);"></path>
        <path d="M363.754,177.537c1.569-0.021,3.1-0.084,4.788,0.03c2.405,0.162,5.119,0.694,7.379,2.121    c2.001,1.265,3.281,2.546,5.019,3.999l-0.011,0.021c-1.571,0.017-3.098,0.082-4.786-0.033c-2.405-0.162-5.122-0.691-7.381-2.121    c-2.004-1.266-3.207-2.692-5.016-3.994" style="fill: rgb(60, 89, 71);"></path>
        <g>
            <g>
            <path d="M334.607,132.347c0.996,4.655,3.52,15.302,10.259,14.924c0.288-0.016,0.29-0.466,0-0.45      c-6.482,0.364-8.861-10.095-9.825-14.594C334.98,131.943,334.546,132.063,334.607,132.347L334.607,132.347z" style="fill: rgb(60, 89, 71);"></path>
            </g>
        </g>
        <g>
            <g>
            <path d="M338.081,124.519c1.457,2.994,3.097,5.786,5.904,7.662c0.241,0.162,0.467-0.228,0.227-0.389      c-2.736-1.829-4.325-4.589-5.742-7.501C338.342,124.031,337.955,124.259,338.081,124.519L338.081,124.519z" style="fill: rgb(60, 89, 71);"></path>
            </g>
        </g>
        <g>
            <g>
            <path d="M352.37,165.715c1.72,4.532,5.656,13.982,12.227,12.087c0.278-0.08,0.16-0.516-0.119-0.434      c-6.263,1.807-10.051-7.5-11.674-11.773C352.702,165.327,352.266,165.442,352.37,165.715L352.37,165.715z" style="fill: rgb(60, 89, 71);"></path>
            </g>
        </g>
        <g>
            <path d="M224.004,27.517c2.713-0.167,5.894-0.52,8.279-2.014c1.102-0.692,2.278-1.89,2.815-3.104     c1.586-3.585-2.604-5.97-5.152-3.932c-2.314,1.857-4.629,4.351-6.875,5.719c-2.508,1.524-5.348,2.341-8.217,2.374     C211.763,26.597,220.705,27.721,224.004,27.517z" style="fill: rgb(60, 89, 71);"></path>
        </g>
        <g>
            <path d="M223.408,29.886c2.353,1.36,5.042,3.094,6.51,5.497c0.679,1.112,1.197,2.707,1.136,4.032     c-0.182,3.918-4.994,4.185-6.363,1.224c-1.246-2.695-2.203-5.962-3.604-8.188c-1.562-2.481-3.741-4.48-6.295-5.792     C212.043,25.246,220.543,28.229,223.408,29.886z" style="fill: rgb(60, 89, 71);"></path>
        </g>
        <path d="M330.31,182.917c0.253,1.151,0.467,2.289,0.839,3.504c0.526,1.736,1.381,3.635,2.811,5.047    c1.271,1.252,2.427,1.969,3.783,2.994l0.015-0.01c-0.254-1.152-0.466-2.285-0.841-3.5c-0.524-1.736-1.376-3.638-2.809-5.049    c-1.269-1.255-2.519-1.892-3.78-2.998" style="fill: rgb(60, 89, 71);"></path>
        <path d="M353.775,178.555c-0.245,1.153-0.451,2.292-0.816,3.509c-0.515,1.74-1.354,3.645-2.775,5.066    c-1.262,1.26-2.415,1.986-3.764,3.02l-0.014-0.008c0.244-1.156,0.451-2.287,0.815-3.506c0.516-1.741,1.354-3.645,2.776-5.065    c1.258-1.263,2.506-1.911,3.761-3.024" style="fill: rgb(60, 89, 71);"></path>
        <g>
            <g>
            <path d="M340.24,158.951c-8.949,5.069-12.469,15.384-10.01,25.066c0.07,0.279,0.505,0.16,0.434-0.12      c-2.408-9.484,1.06-19.605,9.803-24.558C340.719,159.197,340.493,158.808,340.24,158.951L340.24,158.951z" style="fill: rgb(60, 89, 71);"></path>
            </g>
        </g>
        <path d="M328.776,159.208c-2.396,2.083-4.667,4.18-7.416,6.213c-3.921,2.898-8.793,5.63-14.144,6.385    c-4.737,0.67-8.383,0.363-12.954,0.404l-0.016-0.041c2.393-2.085,4.667-4.184,7.415-6.211c3.919-2.906,8.792-5.635,14.143-6.391    c4.734-0.67,8.461-0.041,12.955-0.401" style="fill: rgb(60, 89, 71);"></path>
        <path d="M351.172,124.142c1.98-0.411,3.888-0.86,6.074-1.144c3.115-0.407,6.779-0.466,10.261,0.624    c3.081,0.966,5.255,2.128,8.085,3.37l-0.002,0.029c-1.979,0.409-3.888,0.857-6.071,1.141c-3.116,0.407-6.781,0.464-10.262-0.625    c-3.083-0.964-5.229-2.315-8.086-3.37" style="fill: rgb(60, 89, 71);"></path>
        <path d="M313.745,143.742c-3.47-0.466-6.846-0.827-10.581-1.616c-5.325-1.125-11.349-3.132-16.412-6.912    c-4.481-3.346-7.366-6.49-11.276-10.144l0.017-0.047c3.473,0.469,6.848,0.832,10.579,1.618c5.33,1.125,11.351,3.134,16.414,6.911    c4.482,3.346,7.214,6.783,11.277,10.147" style="fill: rgb(60, 89, 71);"></path>
        <path d="M259.392,40.886c3.692,2.029,7.258,4.173,11.297,5.819c5.754,2.343,12.424,3.597,18.504,0.705    c5.379-2.563,9.064-6.091,13.918-9.714l-0.004-0.096c-3.691-2.028-7.26-4.174-11.293-5.817    c-5.761-2.343-12.432-3.599-18.504-0.704c-5.383,2.559-8.972,6.766-13.922,9.712" style="fill: rgb(60, 89, 71);"></path>
        <path d="M289.511,61.431c-1.703,2.859-3.494,5.616-4.902,8.758c-2.01,4.479-3.184,9.713-1.063,14.591    c1.874,4.318,4.562,7.325,7.288,11.256l0.074,0.001c1.705-2.862,3.494-5.62,4.904-8.758c2.008-4.483,3.182-9.716,1.062-14.592    c-1.873-4.318-5.098-7.268-7.286-11.258" style="fill: rgb(60, 89, 71);"></path>
        <path d="M318.545,95.944c-1.962,1.872-3.972,3.644-5.764,5.8c-2.559,3.079-4.623,6.927-4.028,11.221    c0.528,3.799,1.976,6.746,3.259,10.43l0.059,0.017c1.963-1.873,3.974-3.646,5.765-5.801c2.557-3.081,4.623-6.931,4.025-11.222    c-0.521-3.799-2.409-6.819-3.254-10.429" style="fill: rgb(60, 89, 71);"></path>
        <path d="M310.426,83.74c1.533,1.328,2.999,2.697,4.733,3.881c2.476,1.685,5.492,2.95,8.646,2.197    c2.793-0.662,4.888-1.953,7.54-3.172l0.008-0.045c-1.536-1.329-3-2.7-4.732-3.881c-2.479-1.686-5.493-2.948-8.647-2.199    c-2.795,0.663-4.911,2.283-7.541,3.171" style="fill: rgb(60, 89, 71);"></path>
        <g>
            <path d="M137.418,33.292c-1.188,3.114-1.597,4.02-2.793,7.509c-0.049,0.136-0.093,0.265-0.138,0.399     c-4.175,7.606-12.45,9.616-20.999,11.924c9.164,4.741,15.638-4.66,20.066-9.275c-0.027,0.082-0.407,0.093-0.433,0.176     c-1.35,1.453-1.691,2.232-2.678,4.363c-1.416,3.06-2.691,6.013-4.934,8.588c-1.539,1.768-3.084,3.03-4.967,4.021     c-1.27,0.666-2.633,1.124-3.992,1.575c2.573,1.441,5.826,1.344,8.548,0.266c1.023-0.406,2.066-0.957,2.766-1.826     c0.827-1.023,1.281-2.361,1.511-3.641c0.147-0.826,0.212-1.662,0.232-2.497c0.069-2.841,1.297-5.734,3.009-8.914     c-0.503,1.712-0.913,4.292-1.076,6.246c-0.795,7.725-1.643,21.868-10.304,28.947c1.807-0.226,3.75-0.77,5.372-1.597     c5.547-2.827,7.993-9.355,8.312-15.241c0.057-1.099,0.042-2.794,0.021-3.893c1.786,2.432,2.487,9.117,2.118,12.182     c5.526-5.052,0.263-14.137-1.455-19.763c-0.715-2.347-0.616-5.054-0.1-7.435c0.979,1.935,1.782,4.062,2.602,6.081     c0.407,1.003,2.247,4.886,1.429,5.931c4.226-5.378-3.336-14.158-3.183-18.601c0.307-1.847,0.664-3.68,1.079-5.489L137.418,33.292     z" style="fill: rgb(60, 89, 71);"></path>
        </g>
        <g>
            <g>
            <path d="M318.946,253.472c-2.943-0.602-5.891-1.037-8.853-0.325c-2.944,0.707-5.315,3.011-7.385,5.075      c-0.274,0.273,0.149,0.697,0.424,0.424c1.929-1.924,3.921-3.745,6.502-4.729c2.89-1.102,6.239-0.461,9.15,0.133      C319.164,254.126,319.325,253.548,318.946,253.472L318.946,253.472z" style="fill: rgb(215, 189, 152);"></path>
            </g>
        </g>
        <g>
            <g>
            <path d="M334.764,132.503c1.913,9.306,0.924,21.187-7.316,27.157c-0.232,0.168-0.009,0.559,0.227,0.389      c8.432-6.107,9.482-18.143,7.524-27.665C335.139,132.1,334.706,132.22,334.764,132.503L334.764,132.503z" style="fill: rgb(60, 89, 71);"></path>
            </g>
        </g>
        <g>
            <g>
            <path d="M322.867,103.659c2.359,4.597,3.812,9.794,4.484,14.896c1.555,11.789-4.082,21.216-15.23,25.43      c-0.27,0.102-0.152,0.537,0.119,0.434c10.096-3.814,15.885-11.538,15.812-22.396c-0.042-6.298-1.922-12.991-4.796-18.591      C323.123,103.173,322.735,103.401,322.867,103.659L322.867,103.659z" style="fill: rgb(60, 89, 71);"></path>
            </g>
        </g>
        <g>
            <g>
            <path d="M339.102,150.949c9.771,5.858,17.479,16.825,14.047,28.503c-0.082,0.279,0.353,0.397,0.434,0.121      c3.488-11.873-4.29-23.041-14.253-29.014C339.08,150.411,338.853,150.8,339.102,150.949L339.102,150.949z" style="fill: rgb(60, 89, 71);"></path>
            </g>
        </g>
        <path d="M300.41,259.819c-2.226,0.58-4.17,0.513-4.347-0.155c-0.172-0.67,1.49-1.68,3.717-2.261    c2.223-0.579,4.166-0.51,4.343,0.158C304.293,258.229,302.633,259.237,300.41,259.819z" style="fill: rgb(215, 189, 152);"></path>
        <path d="M186.233,334.234c1.036-1.615,1.998-3.25,3.258-4.795c1.798-2.197,4.199-4.182,7.273-4.421    c2.719-0.211,4.977,0.337,7.717,0.655l0.02,0.039c-1.038,1.615-2,3.25-3.261,4.787c-1.796,2.207-4.199,4.188-7.272,4.428    c-2.72,0.212-5.082-0.621-7.718-0.655" style="fill: rgb(60, 89, 71);"></path>
        <path d="M203.459,324.992c-2.618-0.576-5.226-1.047-7.856-1.951c-3.75-1.295-7.511-3.483-9.309-7.396    c-1.594-3.463-1.964-6.683-2.872-10.433l0.041-0.041c2.618,0.578,5.228,1.049,7.853,1.959c3.761,1.285,7.518,3.479,9.313,7.39    c1.593,3.464,1.644,6.964,2.871,10.433" style="fill: rgb(60, 89, 71);"></path>
        <path d="M210.362,324.855c0.181-2.674,0.258-5.322,0.761-8.061c0.722-3.901,2.323-7.943,5.926-10.309    c3.188-2.09,6.316-2.936,9.886-4.393l0.049,0.033c-0.182,2.676-0.258,5.326-0.768,8.058c-0.71,3.911-2.32,7.95-5.919,10.312    c-3.187,2.092-6.642,2.662-9.888,4.394" style="fill: rgb(60, 89, 71);"></path>
        <path d="M218.653,350.306c-2.006-1.779-4.053-3.461-5.913-5.531c-2.646-2.956-4.864-6.695-4.531-10.99    c0.296-3.801,1.539-6.796,2.569-10.511l0.058-0.019c2.006,1.781,4.056,3.463,5.903,5.535c2.66,2.953,4.875,6.696,4.539,10.99    c-0.293,3.801-1.953,6.881-2.569,10.508" style="fill: rgb(60, 89, 71);"></path>
        <g>
            <g>
            <path d="M42.446,150.442c1.056-6.958,0.985-17.727-6.458-21.398c-0.346-0.17-0.65,0.347-0.303,0.519      c7.184,3.543,7.204,13.99,6.183,20.721C41.81,150.661,42.388,150.824,42.446,150.442L42.446,150.442z" style="fill: rgb(61, 90, 72);"></path>
            </g>
        </g>
        <g>
            <g>
            <path d="M43.465,144.09c1.591-5.807,3.794-15.817-1.491-20.486c-0.289-0.255-0.714,0.167-0.424,0.424      c5.069,4.479,2.855,14.358,1.337,19.903C42.785,144.304,43.363,144.463,43.465,144.09L43.465,144.09z" style="fill: rgb(61, 90, 72);"></path>
            </g>
        </g>
        <g>
            <g>
            <path d="M46.994,131.386c1.25-3.96,2.884-10.407-0.634-13.745c-0.28-0.267-0.705,0.157-0.424,0.424      c3.331,3.162,1.657,9.432,0.479,13.162C46.299,131.596,46.878,131.753,46.994,131.386L46.994,131.386z" style="fill: rgb(61, 90, 72);"></path>
            </g>
        </g>
        <g>
            <g>
            <path d="M48.109,127.788c1.344-3.361,4.275-8.256,8.558-7.792c0.384,0.042,0.38-0.559,0-0.6      c-4.569-0.496-7.704,4.65-9.136,8.232C47.387,127.988,47.967,128.143,48.109,127.788L48.109,127.788z" style="fill: rgb(61, 90, 72);"></path>
            </g>
        </g>
        <g>
            <g>
            <path d="M43.021,148.116c1.43-5.932,5.666-15.47,13.297-14.565c0.384,0.046,0.379-0.555,0-0.6      c-7.908-0.938-12.386,8.827-13.875,15.005C42.352,148.333,42.931,148.492,43.021,148.116L43.021,148.116z" style="fill: rgb(61, 90, 72);"></path>
            </g>
        </g>
        <g>
            <g>
            <path d="M44.642,139.463c1.597-5.285,5.617-13.922,12.316-13.794c0.387,0.008,0.386-0.592,0-0.6      c-7.007-0.135-11.213,8.671-12.894,14.234C43.951,139.675,44.53,139.833,44.642,139.463L44.642,139.463z" style="fill: rgb(61, 90, 72);"></path>
            </g>
        </g>
        <g>
            <g>
            <path d="M55.15,110.265c2.002-5.814,10.82-8.574,16.18-6.104c0.349,0.161,0.654-0.356,0.303-0.519      c-5.732-2.641-14.917,0.237-17.061,6.464C54.445,110.472,55.025,110.628,55.15,110.265L55.15,110.265z" style="fill: rgb(215, 189, 152);"></path>
            </g>
        </g>
        <g>
            <g>
            <path d="M54.429,86.172c1.446,2.208,4.404,3.439,6.995,2.971c0.38-0.068,0.219-0.646-0.159-0.578      c-2.314,0.418-5.03-0.729-6.317-2.696C54.736,85.547,54.216,85.848,54.429,86.172L54.429,86.172z" style="fill: rgb(215, 189, 152);"></path>
            </g>
        </g>
        
            <ellipse transform="matrix(-0.9984 -0.0568 0.0568 -0.9984 162.2938 170.7149)" cx="83.573" cy="83.051" rx="2.695" ry="0.809" style="fill: rgb(215, 189, 152);"></ellipse>
        
            <ellipse transform="matrix(-0.3262 0.9453 -0.9453 -0.3262 184.6505 25.1977)" cx="83.345" cy="78.405" rx="2.697" ry="0.808" style="fill: rgb(215, 189, 152);"></ellipse>
        <g>
            <g>
            <path d="M82.455,80.609c-2.068,3.889-7.207,2.539-10.653,1.708c-0.376-0.091-0.535,0.488-0.159,0.578      c3.73,0.899,9.113,2.184,11.331-1.984C83.154,80.571,82.637,80.268,82.455,80.609L82.455,80.609z" style="fill: rgb(215, 189, 152);"></path>
            </g>
        </g>
        <g>
            <g>
            <path d="M41.131,96.385c7.03-2.844,14.978,4.024,13.096,11.334c-0.097,0.375,0.482,0.534,0.578,0.159      c1.985-7.708-6.354-15.097-13.833-12.071C40.618,95.95,40.772,96.53,41.131,96.385L41.131,96.385z" style="fill: rgb(215, 189, 152);"></path>
            </g>
        </g>
        <g>
            <g>
            <path d="M65.287,73.577c-3.184,5.816-6.394,15.007-2.333,21.135c0.213,0.321,0.733,0.021,0.519-0.303      c-3.914-5.906-0.746-14.905,2.333-20.529C65.991,73.541,65.473,73.238,65.287,73.577L65.287,73.577z" style="fill: rgb(215, 189, 152);"></path>
            </g>
        </g>
        <g>
            <g>
            <path d="M54.14,72.319c6.635,1.514,6.786,9.385,6.894,14.899c0.007,0.386,0.607,0.387,0.6,0      c-0.114-5.8-0.406-13.897-7.334-15.477C53.923,71.655,53.763,72.233,54.14,72.319L54.14,72.319z" style="fill: rgb(215, 189, 152);"></path>
            </g>
        </g>
        
            <ellipse transform="matrix(0.9971 0.0762 -0.0762 0.9971 5.6327 -3.6347)" cx="50.459" cy="72.013" rx="4.163" ry="1.249" style="fill: rgb(215, 189, 152);"></ellipse>
        
            <ellipse transform="matrix(0.197 0.9804 -0.9804 0.197 114.507 -0.0787)" cx="57.302" cy="69.862" rx="4.163" ry="1.248" style="fill: rgb(215, 189, 152);"></ellipse>
        
            <ellipse transform="matrix(-0.1987 0.9801 -0.9801 -0.1987 147.9165 46.156)" cx="55.089" cy="83.547" rx="2.922" ry="0.876" style="fill: rgb(215, 189, 152);"></ellipse>
        
            <ellipse transform="matrix(-0.9214 0.3887 -0.3887 -0.9214 163.7212 119.2444)" cx="69.8" cy="76.182" rx="6.955" ry="2.086" style="fill: rgb(215, 189, 152);"></ellipse>
        
            <ellipse transform="matrix(0.9998 0.0177 -0.0177 0.9998 1.8423 -1.3002)" cx="74.426" cy="103.496" rx="4.003" ry="1.201" style="fill: rgb(215, 189, 152);"></ellipse>
        
            <ellipse transform="matrix(0.9149 0.4037 -0.4037 0.9149 37.4425 -9.7066)" cx="41.743" cy="83.951" rx="6.955" ry="2.086" style="fill: rgb(215, 189, 152);"></ellipse>
        <path d="M35.652,99.936c-3.684,1.094-6.934,1.087-7.263-0.018c-0.329-1.105,2.391-2.889,6.073-3.983    c3.682-1.094,6.932-1.087,7.261,0.017C42.053,97.059,39.333,98.84,35.652,99.936z" style="fill: rgb(215, 189, 152);"></path>
        <path d="M57.16,209.88c-0.939-0.676-1.877-1.301-2.794-2.109c-1.307-1.152-2.558-2.66-2.952-4.536    c-0.354-1.659-0.265-3.019-0.341-4.675l0.02-0.012c0.938,0.675,1.875,1.306,2.794,2.111c1.308,1.151,2.558,2.666,2.953,4.539    c0.351,1.659,0.125,3.073,0.342,4.67" style="fill: rgb(60, 89, 71);"></path>
        <g>
            <g>
            <path d="M57.097,218.345c0.676-3.352,1.077-6.732-0.032-10.024c-0.092-0.272-0.527-0.155-0.434,0.12      c1.085,3.221,0.694,6.504,0.032,9.785C56.606,218.509,57.04,218.628,57.097,218.345L57.097,218.345z" style="fill: rgb(60, 89, 71);"></path>
            </g>
        </g>
        <path d="M38.19,220.533c-0.936,0.28-1.838,0.59-2.851,0.788c-1.445,0.284-3.101,0.345-4.562-0.354    c-1.293-0.615-2.158-1.373-3.307-2.174l0.001-0.02c0.935-0.281,1.84-0.585,2.852-0.787c1.445-0.285,3.102-0.346,4.562,0.354    c1.294,0.619,2.125,1.498,3.307,2.175" style="fill: rgb(60, 89, 71);"></path>
        <path d="M37.696,205.078c-1.956-0.141-3.862-0.224-5.949-0.541c-2.976-0.455-6.294-1.4-8.955-3.416    c-2.354-1.781-3.809-3.511-5.817-5.496l0.012-0.025c1.956,0.143,3.864,0.225,5.949,0.545c2.977,0.453,6.294,1.396,8.955,3.412    c2.357,1.783,3.704,3.686,5.818,5.496" style="fill: rgb(60, 89, 71);"></path>
        <g>
            <g>
            <path d="M58.215,246.369c-4.419-10.91-15.062-25.969-28.34-18.561c-0.253,0.143-0.026,0.529,0.228,0.389      c12.99-7.246,23.375,7.662,27.679,18.29C57.889,246.753,58.324,246.637,58.215,246.369L58.215,246.369z" style="fill: rgb(60, 89, 71);"></path>
            </g>
        </g>
        <path d="M17.29,174.935c-1.57,0.047-3.098,0.138-4.789,0.053c-2.409-0.121-5.131-0.605-7.415-1.996    c-2.022-1.229-3.323-2.489-5.086-3.91l0.009-0.021c1.571-0.045,3.098-0.136,4.787-0.049c2.409,0.12,5.132,0.604,7.415,1.994    c2.025,1.229,3.254,2.637,5.084,3.908" style="fill: rgb(60, 89, 71);"></path>
        <g>
            <g>
            <path d="M47.236,219.862c-1.069-4.604-3.785-15.35-10.498-14.872c-0.288,0.021-0.29,0.471,0,0.45      c6.454-0.459,9.036,10.11,10.064,14.541C46.868,220.265,47.302,220.145,47.236,219.862L47.236,219.862z" style="fill: rgb(60, 89, 71);"></path>
            </g>
        </g>
        <g>
            <g>
            <path d="M44.102,227.761c-1.55-3.049-3.351-5.928-6.267-7.812c-0.245-0.158-0.47,0.231-0.228,0.389      c2.847,1.841,4.594,4.68,6.105,7.65C43.845,228.246,44.233,228.019,44.102,227.761L44.102,227.761z" style="fill: rgb(60, 89, 71);"></path>
            </g>
        </g>
        <g>
            <g>
            <path d="M28.999,187.117c-1.562-4.848-5.654-14.498-12.554-12.433c-0.277,0.082-0.159,0.517,0.119,0.434      c6.61-1.979,10.523,7.531,12.001,12.118C28.654,187.511,29.088,187.394,28.999,187.117L28.999,187.117z" style="fill: rgb(60, 89, 71);"></path>
            </g>
        </g>
        <g>
            <path d="M159.509,322.996c-2.715,0.125-5.9,0.428-8.311,1.885c-1.111,0.677-2.308,1.854-2.863,3.061     c-1.642,3.562,2.509,6.012,5.087,4.012c2.346-1.818,4.698-4.277,6.967-5.609c2.53-1.485,5.382-2.258,8.252-2.245     C171.734,324.105,162.812,322.843,159.509,322.996z" style="fill: rgb(60, 89, 71);"></path>
        </g>
        <g>
            <path d="M160.144,320.638c-2.333-1.398-4.995-3.174-6.425-5.6c-0.661-1.121-1.155-2.725-1.073-4.049     c0.243-3.916,5.059-4.105,6.383-1.123c1.204,2.713,2.109,5.993,3.476,8.241c1.522,2.505,3.671,4.538,6.203,5.89     C171.432,325.453,162.98,322.337,160.144,320.638z" style="fill: rgb(60, 89, 71);"></path>
        </g>
        <path d="M50.635,168.984c-0.272-1.147-0.505-2.282-0.898-3.489c-0.557-1.728-1.442-3.611-2.897-4.999    c-1.29-1.23-2.458-1.927-3.834-2.929l-0.013,0.009c0.273,1.15,0.505,2.278,0.898,3.488c0.557,1.725,1.441,3.61,2.897,4.998    c1.289,1.231,2.551,1.849,3.832,2.932" style="fill: rgb(60, 89, 71);"></path>
        <g>
            <g>
            <path d="M40.928,193.272c8.895-5.271,12.417-15.651,9.769-25.387c-0.076-0.279-0.51-0.161-0.434,0.119      c2.595,9.542-0.869,19.729-9.563,24.878C40.452,193.031,40.678,193.419,40.928,193.272L40.928,193.272z" style="fill: rgb(60, 89, 71);"></path>
            </g>
        </g>
        <path d="M27.25,173.747c0.226-1.16,0.412-2.299,0.755-3.523c0.485-1.747,1.292-3.666,2.688-5.112    c1.239-1.28,2.379-2.026,3.712-3.084l0.013,0.008c-0.226,1.161-0.411,2.297-0.754,3.521c-0.487,1.748-1.292,3.666-2.691,5.111    c-1.236,1.284-2.471,1.952-3.708,3.089" style="fill: rgb(60, 89, 71);"></path>
        <path d="M52.576,192.664c2.359-2.123,4.596-4.261,7.308-6.34c3.87-2.965,8.694-5.779,14.032-6.628    c4.724-0.75,8.375-0.506,12.945-0.625l0.017,0.044c-2.358,2.125-4.595,4.262-7.308,6.336c-3.871,2.973-8.695,5.782-14.032,6.631    c-4.722,0.752-8.458,0.186-12.945,0.623" style="fill: rgb(60, 89, 71);"></path>
        <path d="M30.783,228.107c-1.974,0.443-3.872,0.926-6.053,1.247c-3.109,0.461-6.771,0.583-10.271-0.448    c-3.099-0.912-5.291-2.037-8.141-3.23v-0.028c1.973-0.442,3.873-0.923,6.052-1.245c3.111-0.46,6.773-0.58,10.272,0.449    c3.098,0.911,5.266,2.225,8.141,3.23" style="fill: rgb(60, 89, 71);"></path>
        <path d="M67.869,207.869c3.479,0.406,6.858,0.711,10.607,1.436c5.344,1.033,11.4,2.938,16.528,6.629    c4.539,3.27,7.478,6.363,11.449,9.949l-0.016,0.048c-3.479-0.409-6.859-0.714-10.605-1.437    c-5.347-1.035-11.402-2.939-16.529-6.629c-4.54-3.27-7.328-6.658-11.45-9.951" style="fill: rgb(60, 89, 71);"></path>
        <path d="M123.975,309.78c-3.728-1.966-7.329-4.049-11.394-5.626c-5.794-2.242-12.484-3.383-18.514-0.387    c-5.336,2.654-8.96,6.245-13.75,9.951l0.005,0.095c3.727,1.967,7.332,4.05,11.393,5.623c5.799,2.245,12.489,3.386,18.513,0.388    c5.337-2.65,8.854-6.918,13.754-9.947" style="fill: rgb(60, 89, 71);"></path>
        <path d="M93.308,290.175c1.653-2.889,3.397-5.676,4.752-8.842c1.931-4.513,3.015-9.766,0.813-14.606    c-1.95-4.284-4.685-7.245-7.48-11.129h-0.074c-1.656,2.891-3.399,5.679-4.753,8.841c-1.93,4.518-3.015,9.77-0.813,14.607    c1.946,4.287,5.221,7.18,7.478,11.133" style="fill: rgb(60, 89, 71);"></path>
        <path d="M63.888,255.742c1.929-1.904,3.907-3.712,5.664-5.898c2.503-3.12,4.503-7.006,3.833-11.287    c-0.592-3.789-2.091-6.711-3.435-10.373l-0.059-0.016c-1.932,1.906-3.91,3.713-5.665,5.897c-2.503,3.125-4.504,7.011-3.834,11.289    c0.588,3.79,2.527,6.776,3.433,10.373" style="fill: rgb(60, 89, 71);"></path>
        <path d="M72.215,267.807c-1.557-1.304-3.044-2.646-4.8-3.8c-2.503-1.643-5.542-2.855-8.683-2.049    c-2.782,0.709-4.853,2.035-7.484,3.299l-0.007,0.046c1.559,1.303,3.046,2.647,4.799,3.8c2.506,1.643,5.543,2.854,8.685,2.051    c2.781-0.711,4.87-2.365,7.483-3.299" style="fill: rgb(60, 89, 71);"></path>
        <g>
            <path d="M240.677,317.223c0.754-3.246,1.035-4.199,1.745-7.818c0.029-0.143,0.056-0.276,0.083-0.413     c3.1-8.104,11.023-11.223,19.18-14.674c-9.726-3.449-14.858,6.746-18.617,11.92c0.017-0.084,0.391-0.146,0.406-0.232     c1.139-1.623,1.37-2.439,2.059-4.687c0.986-3.226,1.848-6.323,3.719-9.18c1.283-1.961,2.645-3.423,4.373-4.659     c1.168-0.834,2.456-1.475,3.74-2.105c-2.745-1.076-5.954-0.537-8.506,0.902c-0.957,0.54-1.916,1.229-2.49,2.186     c-0.682,1.127-0.948,2.514-1.004,3.812c-0.031,0.839,0.019,1.675,0.111,2.505c0.318,2.824-0.504,5.858-1.768,9.241     c0.266-1.767,0.32-4.377,0.216-6.335c-0.265-7.762-1.35-21.889,6.267-30.08c-1.76,0.469-3.609,1.273-5.104,2.312     c-5.108,3.557-6.644,10.356-6.158,16.231c0.093,1.097,0.339,2.774,0.511,3.86c-2.102-2.168-3.705-8.695-3.758-11.78     c-4.787,5.756,1.664,14.041,4.133,19.381c1.027,2.228,1.299,4.923,1.11,7.353c-1.233-1.784-2.317-3.783-3.405-5.672     c-0.539-0.938-2.892-4.533-2.223-5.681c-3.454,5.904,5.232,13.572,5.686,17.994c-0.054,1.872-0.156,3.735-0.32,5.585     L240.677,317.223z" style="fill: rgb(60, 89, 71);"></path>
        </g>
        <g>
            <g>
            <path d="M61.345,98.478c3.1,0.392,6.294,0.768,9.298-0.304c2.521-0.899,4.498-3.083,6.297-4.955      c0.268-0.279-0.156-0.704-0.424-0.424c-1.924,2.002-3.882,4.033-6.554,4.986c-2.686,0.958-5.871,0.443-8.617,0.097      C60.962,97.83,60.967,98.431,61.345,98.478L61.345,98.478z" style="fill: rgb(215, 189, 152);"></path>
            </g>
        </g>
        <g>
            <g>
            <path d="M340.729,175.013c-0.214,46.744-22.084,90.919-59.13,119.431      c-37.106,28.558-86.592,37.55-131.581,25.175c-44.26-12.175-80.87-45.402-98.405-87.641      C33.64,188.685,37.819,138.296,61.602,98.1c23.506-39.729,65.254-66.496,110.932-72.164      c46.238-5.737,93.045,11.186,125.594,44.302C325.468,98.052,340.551,136.13,340.729,175.013c0.003,0.541,0.844,0.541,0.841,0      c-0.2-43.841-19.292-85.532-52.356-114.322c-33.005-28.738-77.705-41.193-120.87-35.037      c-42.778,6.101-81.188,31.515-104.694,67.561c-24.208,37.123-30.202,84.19-17.345,126.443      c12.503,41.092,43.196,75.193,82.121,92.993c39.971,18.278,87.041,17.457,126.715-1.11      c52.493-24.566,86.166-78.851,86.431-136.527C341.572,174.47,340.731,174.471,340.729,175.013z" style="fill: rgb(61, 90, 72);"></path>
            </g>
        </g>
        <g>
            <g>
            <path d="M46.922,220.02c-2.125-9.354-1.625-21.644,6.64-27.865c0.229-0.173,0.005-0.563-0.228-0.389      c-8.459,6.368-9.023,18.793-6.846,28.373C46.552,220.421,46.986,220.302,46.922,220.02L46.922,220.02z" style="fill: rgb(60, 89, 71);"></path>
            </g>
        </g>
        <g>
            <g>
            <path d="M59.133,248.197c-2.279-4.352-3.713-9.244-4.495-14.072c-1.948-12.031,3.431-21.985,14.847-26.523      c0.266-0.105,0.15-0.541-0.12-0.434c-10.046,3.992-15.736,11.83-15.567,22.701c0.098,6.299,2.024,12.978,4.946,18.555      C58.879,248.682,59.268,248.455,59.133,248.197L59.133,248.197z" style="fill: rgb(60, 89, 71);"></path>
            </g>
        </g>
        <g>
            <g>
            <path d="M41.701,200.615c-9.77-5.593-17.003-16.306-13.842-27.774c0.078-0.279-0.357-0.398-0.434-0.119      c-3.214,11.658,4.078,22.574,14.048,28.281C41.726,201.147,41.953,200.759,41.701,200.615L41.701,200.615z" style="fill: rgb(60, 89, 71);"></path>
            </g>
        </g>
        
            <ellipse transform="matrix(-0.9632 0.2689 -0.2689 -0.9632 181.1153 160.748)" cx="79.549" cy="92.777" rx="4.163" ry="1.249" style="fill: rgb(215, 189, 152);"></ellipse>
        </g>
        <g id="__id29_s0rb6s3h5d">
        <path d="M174.507,25.965c-2.678-0.126-5.327-0.144-8.072-0.586c-3.92-0.637-7.995-2.153-10.434-5.701    c-2.16-3.145-3.075-6.25-4.608-9.788l0.033-0.051c2.677,0.125,5.327,0.144,8.071,0.591c3.926,0.627,7.997,2.15,10.436,5.696    c2.16,3.139,2.809,6.58,4.605,9.791" style="fill: rgb(112, 136, 93);"></path>
        <path d="M326.082,264.708c1.03-0.25,1.93-0.203,2.006,0.106c0.074,0.312-0.704,0.765-1.734,1.013    c-1.031,0.252-1.93,0.2-2.005-0.106C324.274,265.41,325.048,264.958,326.082,264.708z" style="fill: rgb(112, 136, 93);"></path>
        <path d="M175.842,26.313c0.102-3.015,0.084-5.995,0.544-9.091c0.663-4.42,2.312-9.027,6.271-11.82    c3.506-2.473,6.99-3.547,10.949-5.321l0.056,0.037c-0.104,3.013-0.086,5.996-0.554,9.086c-0.651,4.428-2.307,9.031-6.266,11.826    c-3.501,2.472-7.362,3.249-10.949,5.314" style="fill: rgb(112, 136, 93);"></path>
        <path d="M178.979,54.09c-1.357-2.311-2.791-4.539-3.921-7.08c-1.607-3.631-2.564-7.872-0.925-11.854    c1.452-3.525,3.554-5.99,5.681-9.207h0.057c1.359,2.311,2.792,4.538,3.916,7.083c1.621,3.63,2.57,7.872,0.932,11.853    c-1.448,3.524-3.975,5.946-5.682,9.207" style="fill: rgb(112, 136, 93);"></path>
        <path d="M315.41,284.238c-0.591,3.797-1.995,6.729-3.134,6.553c-1.139-0.18-1.584-3.4-0.988-7.195    c0.591-3.797,1.995-6.729,3.132-6.553C315.562,277.224,316.002,280.443,315.41,284.238z" style="fill: rgb(112, 136, 93);"></path>
        <path d="M343.485,222.169c-0.729,1.158,0.173,3.097,2.014,4.328c1.832,1.226,3.92,1.285,4.649,0.127    c0.726-1.158-0.184-3.102-2.017-4.326C346.291,221.068,344.208,221.013,343.485,222.169z" style="fill: rgb(112, 136, 93);"></path>
        <path d="M337.753,227.474c-0.844,0.826-0.477,2.63,0.82,4.031c1.289,1.395,3.022,1.865,3.869,1.039    c0.841-0.824,0.468-2.633-0.821-4.027C340.326,227.115,338.593,226.65,337.753,227.474z" style="fill: rgb(112, 136, 93);"></path>
        <path d="M333.514,233.597c-0.571,0.512-0.384,1.713,0.426,2.68c0.802,0.959,1.923,1.332,2.495,0.819    c0.571-0.511,0.382-1.716-0.426-2.677C335.203,233.453,334.085,233.085,333.514,233.597z" style="fill: rgb(112, 136, 93);"></path>
        <path d="M324.081,232.074c0,0.75-1,1.359-2.232,1.355c-1.226,0.001-2.229-0.608-2.226-1.36    c-0.001-0.749,1.002-1.358,2.229-1.356C323.084,230.714,324.081,231.326,324.081,232.074z" style="fill: rgb(112, 136, 93);"></path>
        <path d="M325.062,218.496c-0.028,1.383-1.669,2.526-3.669,2.553c-1.985,0.027-3.585-1.069-3.558-2.453    c0.029-1.381,1.677-2.526,3.663-2.551C323.497,216.017,325.092,217.115,325.062,218.496z" style="fill: rgb(112, 136, 93);"></path>
        <path d="M324.188,226.294c0.071,1.174-1.332,2.266-3.142,2.437c-1.796,0.171-3.323-0.644-3.396-1.815    c-0.073-1.174,1.338-2.267,3.137-2.435C322.594,224.31,324.115,225.123,324.188,226.294z" style="fill: rgb(112, 136, 93);"></path>
        
            <ellipse transform="matrix(0.8449 -0.5349 0.5349 0.8449 -99.7392 199.6721)" cx="294.505" cy="271.856" rx="2.696" ry="0.81" style="fill: rgb(112, 136, 93);"></ellipse>
        <path d="M328.686,281.72c1.679,1.57,2.658,3.252,2.188,3.757c-0.472,0.502-2.215-0.36-3.895-1.935    c-1.677-1.567-2.655-3.248-2.186-3.754C325.266,279.285,327.009,280.15,328.686,281.72z" style="fill: rgb(112, 136, 93);"></path>
        
            <ellipse transform="matrix(-0.7691 -0.6391 0.6391 -0.7691 387.564 631.5048)" cx="307.853" cy="245.746" rx="3.065" ry="0.92" style="fill: rgb(112, 136, 93);"></ellipse>
        <path d="M337.907,250.718c1.341-2.676,3.078-4.52,3.882-4.117s0.368,2.898-0.973,5.574    c-1.342,2.678-3.082,4.521-3.883,4.121C336.131,255.892,336.566,253.396,337.907,250.718z" style="fill: rgb(112, 136, 93);"></path>
        
            <ellipse transform="matrix(-0.9746 0.224 -0.224 -0.9746 716.2477 441.3954)" cx="333.089" cy="261.322" rx="5.328" ry="1.597" style="fill: rgb(112, 136, 93);"></ellipse>
        <path d="M324.726,142.259c0.729,0.897,1.475,1.745,2.153,2.761c0.963,1.455,1.775,3.239,1.667,5.152    c-0.088,1.692-0.524,2.982-0.882,4.599l-0.023,0.007c-0.729-0.894-1.471-1.747-2.148-2.764c-0.963-1.452-1.776-3.237-1.671-5.151    c0.096-1.695,0.678-2.997,0.886-4.596" style="fill: rgb(112, 136, 93);"></path>
        <path d="M344.188,131.464c0.356,0.909,0.74,1.782,1.024,2.774c0.403,1.417,0.602,3.062,0.026,4.576    c-0.506,1.338-1.188,2.266-1.892,3.477l-0.02-0.001c-0.358-0.907-0.736-1.784-1.021-2.775c-0.404-1.417-0.604-3.062-0.026-4.576    c0.506-1.342,1.312-2.243,1.888-3.475" style="fill: rgb(112, 136, 93);"></path>
        <path d="M343.631,146.919c1.8-0.78,3.531-1.585,5.529-2.267c2.85-0.968,6.229-1.661,9.52-1.1    c2.912,0.495,4.999,1.359,7.696,2.193l0.003,0.03c-1.801,0.776-3.532,1.581-5.529,2.263c-2.853,0.969-6.231,1.662-9.52,1.1    c-2.913-0.494-4.988-1.561-7.697-2.191" style="fill: rgb(112, 136, 93);"></path>
        <path d="M364.098,177.861c0.805-1.352,1.553-2.685,2.525-4.068c1.396-1.966,3.27-4.003,5.67-5.182    c2.121-1.046,3.884-1.464,6.027-2.19l0.016,0.019c-0.808,1.349-1.551,2.684-2.53,4.065c-1.396,1.967-3.265,4.008-5.665,5.186    c-2.125,1.046-3.971,1.326-6.027,2.189" style="fill: rgb(112, 136, 93);"></path>
        <g>
            <path d="M212.103,25.03c2.692-0.347,5.846-0.912,8.125-2.565c1.051-0.767,2.146-2.04,2.6-3.288     c1.342-3.686-3-5.783-5.402-3.576c-2.188,2.007-4.328,4.651-6.479,6.169c-2.396,1.691-5.176,2.696-8.038,2.924     C199.827,24.94,208.824,25.458,212.103,25.03z" style="fill: rgb(112, 136, 93);"></path>
        </g>
        <g>
            <path d="M211.665,27.437c2.439,1.199,5.24,2.747,6.868,5.044c0.75,1.063,1.376,2.622,1.403,3.947     c0.084,3.92-4.699,4.514-6.267,1.649c-1.426-2.604-2.601-5.799-4.147-7.926c-1.727-2.369-4.035-4.217-6.672-5.354     C200.017,23.573,208.698,25.977,211.665,27.437z" style="fill: rgb(112, 136, 93);"></path>
        </g>
        <g>
            <path d="M236.437,30.068c2.717-0.041,5.91-0.247,8.362-1.63c1.132-0.642,2.363-1.785,2.955-2.972     c1.75-3.509-2.323-6.085-4.964-4.164c-2.4,1.747-4.826,4.132-7.134,5.396c-2.574,1.41-5.449,2.092-8.316,1.994     C224.25,28.589,233.129,30.121,236.437,30.068z" style="fill: rgb(112, 136, 93);"></path>
        </g>
        <g>
            <path d="M235.729,32.408c2.289,1.468,4.896,3.322,6.254,5.79c0.625,1.142,1.07,2.76,0.949,4.082     c-0.363,3.905-5.182,3.951-6.416,0.929c-1.121-2.749-1.928-6.056-3.224-8.345c-1.446-2.548-3.53-4.647-6.021-6.074     C224.593,27.25,232.948,30.622,235.729,32.408z" style="fill: rgb(112, 136, 93);"></path>
        </g>
        <path d="M330.513,183.509c-0.825,1.332-1.67,2.615-2.443,4.115c-1.104,2.146-2.05,4.746-1.987,7.422    c0.048,2.363,0.488,4.119,0.834,6.355l0.024,0.006c0.824-1.338,1.667-2.613,2.44-4.117c1.104-2.146,2.047-4.744,1.992-7.416    c-0.053-2.373-0.657-4.142-0.836-6.365" style="fill: rgb(112, 136, 93);"></path>
        <path d="M353.525,178.867c0.836,1.334,1.688,2.604,2.471,4.104c1.119,2.139,2.083,4.729,2.038,7.406    c-0.031,2.365-0.459,4.125-0.791,6.36l-0.024,0.009c-0.835-1.332-1.683-2.604-2.47-4.101c-1.118-2.142-2.08-4.731-2.041-7.403    c0.035-2.371,0.628-4.146,0.793-6.371" style="fill: rgb(112, 136, 93);"></path>
        <path d="M328.526,159.248c-0.63,3.113-1.162,6.158-2.106,9.445c-1.347,4.684-3.552,9.814-7.341,13.668    c-3.352,3.413-6.43,5.389-10.033,8.203l-0.039-0.025c0.631-3.11,1.164-6.156,2.105-9.44c1.349-4.687,3.553-9.816,7.341-13.671    c3.354-3.415,6.688-5.181,10.036-8.203" style="fill: rgb(112, 136, 93);"></path>
        <path d="M351.247,124.683c0.75-1.64,1.429-3.254,2.402-4.94c1.39-2.403,3.389-4.914,6.281-6.451    c2.562-1.363,4.788-1.962,7.443-2.949l0.023,0.021c-0.749,1.64-1.43,3.258-2.399,4.938c-1.389,2.404-3.391,4.916-6.282,6.451    c-2.562,1.363-4.933,1.806-7.446,2.949" style="fill: rgb(112, 136, 93);"></path>
        <g>
            <path d="M143.863,31.966c-3.292,0.433-4.277,0.502-7.9,1.104c-0.142,0.023-0.276,0.043-0.415,0.066     c-8.641-0.058-9.736-10.605-16.262-13.951c-3.654,7.13,7.361,12.692,13.499,14.389c-0.084,0.014-0.274-0.311-0.358-0.298     c-1.914-0.495-2.755-0.424-5.089-0.28c-3.352,0.205-6.542,0.484-9.858-0.262c-2.279-0.511-4.115-1.27-5.873-2.451     c-1.187-0.797-2.232-1.774-3.271-2.75c-0.046,2.937,1.581,5.74,3.812,7.616c0.838,0.705,1.815,1.357,2.907,1.559     c1.289,0.241,2.676,0.005,3.906-0.398c0.792-0.261,1.554-0.6,2.296-0.977c2.525-1.284,5.639-1.578,9.236-1.581     c-1.739,0.371-4.194,1.23-5.983,2.012c-7.145,2.958-19.937,8.905-30.237,4.667c1.051,1.475,2.449,2.921,3.94,3.95     c5.101,3.523,11.977,2.578,17.287,0.071c0.99-0.469,2.469-1.283,3.422-1.823c-1.289,2.715-6.813,6.493-9.674,7.619     c7.043,2.452,12.511-6.456,16.63-10.625c1.716-1.736,4.137-2.929,6.465-3.604c-1.232,1.773-2.718,3.484-4.097,5.155     c-0.687,0.832-3.218,4.282-4.521,4.058c6.711,1.159,10.828-9.621,14.792-11.586c1.766-0.605,3.54-1.161,5.321-1.654     L143.863,31.966z" style="fill: rgb(112, 136, 93);"></path>
        </g>
        <path d="M313.596,143.56c-2.169,2.246-4.203,4.501-6.763,6.693c-3.65,3.13-8.355,6.088-13.967,6.939    c-4.967,0.756-8.949,0.462-13.858,0.546l-0.026-0.048c2.168-2.247,4.205-4.5,6.762-6.694c3.648-3.129,8.357-6.087,13.965-6.939    c4.966-0.754,9.101-0.117,13.86-0.542" style="fill: rgb(112, 136, 93);"></path>
        <path d="M261.233,40.771c-1.483,3.944-3.104,7.778-4.153,12.008c-1.505,6.028-1.799,12.81,1.929,18.417    c3.301,4.961,7.314,8.108,11.592,12.398l0.094-0.018c1.484-3.944,3.103-7.78,4.156-12.005c1.502-6.035,1.795-12.814-1.931-18.418    c-3.3-4.964-7.974-7.919-11.591-12.401" style="fill: rgb(112, 136, 93);"></path>
        <path d="M289.675,61.361c2.669,2.17,5.219,4.416,8.219,6.326c4.275,2.726,9.448,4.71,14.753,3.276    c4.694-1.269,8.173-3.561,12.599-5.758l0.012-0.076c-2.667-2.173-5.219-4.417-8.217-6.327c-4.28-2.727-9.451-4.711-14.753-3.276    c-4.695,1.265-8.195,4.119-12.599,5.756" style="fill: rgb(112, 136, 93);"></path>
        <path d="M319.694,97.594c1.645,1.941,3.188,3.919,5.107,5.719c2.736,2.564,6.225,4.713,10.271,4.396    c3.588-0.279,6.425-1.472,9.941-2.462l0.02-0.055c-1.643-1.943-3.189-3.921-5.106-5.72c-2.737-2.565-6.225-4.714-10.271-4.396    c-3.584,0.279-6.519,1.874-9.942,2.461" style="fill: rgb(112, 136, 93);"></path>
        <path d="M307.568,79.724c-1.454,1.926-2.964,3.77-4.229,5.926c-1.801,3.068-3.059,6.749-1.916,10.431    c1.011,3.259,2.709,5.638,4.363,8.687l0.055,0.005c1.453-1.923,2.962-3.772,4.225-5.923c1.803-3.074,3.06-6.752,1.918-10.433    c-1.01-3.261-3.1-5.641-4.361-8.688" style="fill: rgb(112, 136, 93);"></path>
        <path d="M304.153,253.574c-2.163-0.767-3.731-1.92-3.502-2.568c0.23-0.649,2.175-0.553,4.341,0.216    c2.164,0.771,3.734,1.921,3.505,2.573C308.264,254.441,306.323,254.343,304.153,253.574z" style="fill: rgb(112, 136, 93);"></path>
        
            <ellipse transform="matrix(0.2423 -0.9702 0.9702 0.2423 -22.7882 492.0984)" cx="303.657" cy="260.639" rx="4.162" ry="1.249" style="fill: rgb(112, 136, 93);"></ellipse>
        <path d="M207.785,324.173c-0.052,3.017,0.017,5.996-0.39,9.101c-0.588,4.431-2.158,9.063-6.068,11.925    c-3.46,2.533-6.928,3.666-10.856,5.508l-0.055-0.035c0.051-3.016-0.016-5.996,0.396-9.096c0.576-4.438,2.152-9.068,6.062-11.932    c3.457-2.531,7.307-3.373,10.855-5.503" style="fill: rgb(112, 136, 93);"></path>
        <path d="M204.172,296.457c1.396,2.285,2.867,4.488,4.041,7.01c1.669,3.604,2.699,7.828,1.127,11.838    c-1.392,3.55-3.45,6.051-5.521,9.304h-0.059c-1.396-2.286-2.867-4.489-4.037-7.015c-1.681-3.602-2.703-7.826-1.134-11.834    c1.388-3.551,3.874-6.014,5.522-9.303" style="fill: rgb(112, 136, 93);"></path>
        <path d="M209.124,324.5c2.68,0.08,5.329,0.053,8.081,0.447c3.931,0.569,8.03,2.016,10.53,5.521    c2.213,3.107,3.182,6.197,4.773,9.707l-0.031,0.052c-2.68-0.079-5.328-0.052-8.08-0.453c-3.937-0.56-8.033-2.012-10.531-5.519    c-2.215-3.101-2.92-6.529-4.772-9.709" style="fill: rgb(112, 136, 93);"></path>
        <path d="M36.792,129.961c0.708-1.17-0.226-3.092-2.091-4.292c-1.852-1.193-3.94-1.217-4.649-0.047    c-0.706,1.171,0.236,3.097,2.089,4.289C34.006,131.111,36.087,131.132,36.792,129.961z" style="fill: rgb(112, 136, 93);"></path>
        
            <ellipse transform="matrix(-0.1372 0.9905 -0.9905 -0.1372 141.9757 11.7627)" cx="65.865" cy="67.714" rx="6.956" ry="2.087" style="fill: rgb(112, 136, 93);"></ellipse>
        <path d="M42.431,124.56c0.828-0.839,0.432-2.636-0.889-4.017c-1.314-1.372-3.058-1.811-3.887-0.973    c-0.827,0.84-0.425,2.643,0.889,4.014C39.865,124.963,41.605,125.399,42.431,124.56z" style="fill: rgb(112, 136, 93);"></path>
        <path d="M46.565,118.365c0.563-0.521,0.354-1.717-0.471-2.67c-0.819-0.947-1.946-1.299-2.511-0.777    c-0.562,0.522-0.35,1.72,0.471,2.668C44.879,118.54,46.002,118.887,46.565,118.365z" style="fill: rgb(112, 136, 93);"></path>
        <path d="M56.022,119.728c-0.012-0.75,0.976-1.376,2.208-1.396c1.226-0.021,2.238,0.571,2.25,1.322    c0.012,0.75-0.98,1.375-2.206,1.396C57.042,121.07,56.034,120.478,56.022,119.728z" style="fill: rgb(112, 136, 93);"></path>
        <path d="M55.273,133.32c0.005-1.383,1.625-2.554,3.623-2.615c1.985-0.062,3.604,1.009,3.601,2.392    c-0.005,1.382-1.634,2.556-3.621,2.614C56.879,135.772,55.267,134.702,55.273,133.32z" style="fill: rgb(112, 136, 93);"></path>
        <path d="M56.015,125.507c-0.092-1.173,1.293-2.287,3.098-2.489c1.793-0.2,3.334,0.586,3.427,1.758    c0.092,1.171-1.3,2.288-3.094,2.487C57.641,127.465,56.107,126.678,56.015,125.507z" style="fill: rgb(112, 136, 93);"></path>
        
            <ellipse transform="matrix(-0.8365 0.5479 -0.5479 -0.8365 199.4977 99.3974)" cx="84.922" cy="79.458" rx="2.695" ry="0.809" style="fill: rgb(112, 136, 93);"></ellipse>
        
            <ellipse transform="matrix(0.9678 -0.2519 0.2519 0.9678 -20.0879 16.2199)" cx="53.315" cy="86.578" rx="1.923" ry="0.577" style="fill: rgb(112, 136, 93);"></ellipse>
        
            <ellipse transform="matrix(0.7418 0.6706 -0.6706 0.7418 59.7061 -16.5957)" cx="51.406" cy="69.242" rx="4.162" ry="1.248" style="fill: rgb(112, 136, 93);"></ellipse>
        
            <ellipse transform="matrix(0.7797 0.6262 -0.6262 0.7797 82.1089 -21.7804)" cx="72.006" cy="105.794" rx="3.066" ry="0.919" style="fill: rgb(112, 136, 93);"></ellipse>
        
            <ellipse transform="matrix(0.4323 -0.9017 0.9017 0.4323 -67.7845 93.5592)" cx="40.413" cy="100.614" rx="5.421" ry="1.626" style="fill: rgb(112, 136, 93);"></ellipse>
        
            <ellipse transform="matrix(0.9706 -0.2407 0.2407 0.9706 -20.4515 13.865)" cx="46.53" cy="90.649" rx="5.327" ry="1.598" style="fill: rgb(112, 136, 93);"></ellipse>
        <path d="M56.915,209.541c-0.745-0.885-1.503-1.721-2.199-2.726c-0.988-1.438-1.831-3.207-1.756-5.121    c0.06-1.692,0.475-2.991,0.804-4.612l0.022-0.008c0.745,0.883,1.501,1.721,2.197,2.727c0.987,1.436,1.83,3.207,1.759,5.121    c-0.065,1.697-0.627,3.01-0.807,4.611" style="fill: rgb(112, 136, 93);"></path>
        <g>
            <g>
            <path d="M54.275,111.286c0.45-4.658,2.257-9.644,1.587-14.363c-0.719-5.072-3.811-8.173-8.119-10.67      c-0.335-0.194-0.637,0.324-0.303,0.519c5.41,3.135,8.168,7.138,7.854,13.448c-0.185,3.716-1.262,7.361-1.619,11.067      C53.638,111.671,54.238,111.667,54.275,111.286L54.275,111.286z" style="fill: rgb(215, 189, 152);"></path>
            </g>
        </g>
        <path d="M37.72,220.705c-0.373-0.902-0.771-1.77-1.071-2.756c-0.427-1.41-0.654-3.053-0.105-4.574    c0.483-1.349,1.149-2.287,1.831-3.51l0.019,0.002c0.374,0.899,0.767,1.77,1.069,2.756c0.429,1.41,0.655,3.051,0.107,4.573    c-0.486,1.351-1.275,2.265-1.829,3.509" style="fill: rgb(112, 136, 93);"></path>
        <path d="M37.933,205.205c-1.787,0.811-3.504,1.646-5.49,2.359c-2.833,1.018-6.199,1.77-9.499,1.264    c-2.921-0.445-5.022-1.272-7.733-2.062l-0.003-0.029c1.787-0.808,3.504-1.641,5.489-2.356c2.835-1.019,6.202-1.769,9.5-1.264    c2.921,0.444,5.014,1.477,7.734,2.061" style="fill: rgb(112, 136, 93);"></path>
        <path d="M17.021,174.731c-0.781,1.367-1.505,2.713-2.458,4.112c-1.363,1.99-3.199,4.059-5.579,5.277    c-2.104,1.082-3.858,1.531-5.989,2.293l-0.015-0.018c0.782-1.363,1.504-2.71,2.459-4.107c1.363-1.992,3.196-4.062,5.575-5.283    c2.106-1.082,3.948-1.395,5.99-2.292" style="fill: rgb(112, 136, 93);"></path>
        <g>
            <path d="M171.884,325.449c-2.682,0.432-5.812,1.096-8.04,2.82c-1.027,0.799-2.081,2.105-2.495,3.367     c-1.226,3.725,3.178,5.686,5.512,3.402c2.123-2.074,4.181-4.785,6.281-6.369c2.343-1.764,5.09-2.855,7.942-3.172     C184.157,325.155,175.149,324.919,171.884,325.449z" style="fill: rgb(112, 136, 93);"></path>
        </g>
        <g>
            <path d="M172.247,323.033c-2.477-1.123-5.324-2.582-7.022-4.828c-0.784-1.039-1.458-2.578-1.527-3.9     c-0.205-3.916,4.556-4.658,6.212-1.846c1.506,2.56,2.78,5.715,4.395,7.793c1.799,2.313,4.165,4.088,6.834,5.143     C184.01,326.528,175.258,324.397,172.247,323.033z" style="fill: rgb(112, 136, 93);"></path>
        </g>
        <g>
            <path d="M147.119,320.251c-2.717,0-5.914,0.154-8.388,1.5c-1.142,0.625-2.391,1.748-3,2.927     c-1.804,3.481,2.229,6.12,4.898,4.241c2.427-1.711,4.89-4.059,7.217-5.285c2.595-1.369,5.48-2.008,8.347-1.864     C159.28,321.921,150.425,320.251,147.119,320.251z" style="fill: rgb(112, 136, 93);"></path>
        </g>
        <g>
            <path d="M147.862,317.923c-2.267-1.504-4.845-3.398-6.162-5.887c-0.608-1.15-1.028-2.775-0.886-4.095     c0.423-3.899,5.242-3.871,6.428-0.83c1.078,2.767,1.833,6.085,3.093,8.396c1.407,2.57,3.459,4.701,5.926,6.168     C158.917,323.253,150.616,319.751,147.862,317.923z" style="fill: rgb(112, 136, 93);"></path>
        </g>
        <path d="M50.55,169.062c0.806-1.35,1.626-2.644,2.375-4.16c1.067-2.164,1.967-4.778,1.86-7.452    c-0.089-2.364-0.56-4.112-0.944-6.343l-0.023-0.004c-0.803,1.351-1.622,2.642-2.371,4.158c-1.067,2.165-1.966,4.779-1.864,7.45    c0.092,2.371,0.727,4.129,0.943,6.35" style="fill: rgb(112, 136, 93);"></path>
        <path d="M27.494,173.431c-0.86-1.318-1.731-2.576-2.542-4.061c-1.154-2.118-2.161-4.693-2.164-7.37    c-0.009-2.367,0.39-4.132,0.681-6.376l0.024-0.006c0.858,1.316,1.728,2.574,2.54,4.058c1.155,2.119,2.161,4.694,2.167,7.368    c0.006,2.371-0.555,4.152-0.682,6.382" style="fill: rgb(112, 136, 93);"></path>
        <path d="M52.824,192.619c0.579-3.123,1.057-6.177,1.945-9.479c1.266-4.705,3.383-9.876,7.104-13.793    c3.294-3.469,6.337-5.498,9.893-8.373l0.04,0.025c-0.579,3.122-1.058,6.176-1.945,9.477c-1.268,4.707-3.384,9.875-7.105,13.793    c-3.294,3.471-6.601,5.296-9.893,8.374" style="fill: rgb(112, 136, 93);"></path>
        <path d="M30.699,227.568c-0.722,1.65-1.373,3.278-2.318,4.979c-1.348,2.428-3.303,4.974-6.169,6.559    c-2.536,1.407-4.753,2.044-7.394,3.076l-0.024-0.021c0.723-1.65,1.373-3.281,2.318-4.979c1.348-2.428,3.304-4.973,6.168-6.559    c2.539-1.406,4.903-1.89,7.396-3.076" style="fill: rgb(112, 136, 93);"></path>
        <g>
            <path d="M234.474,319.414c3.201-0.877,4.17-1.08,7.676-2.17c0.139-0.041,0.269-0.08,0.402-0.123     c8.567-1.119,11.09,9.184,18.01,11.607c2.648-7.562-9.021-11.572-15.332-12.417c0.082-0.026,0.314,0.271,0.396,0.246     c1.964,0.229,2.789,0.045,5.081-0.416c3.292-0.66,6.414-1.371,9.803-1.083c2.326,0.195,4.249,0.697,6.15,1.628     c1.283,0.628,2.453,1.454,3.615,2.28c-0.354-2.916-2.349-5.471-4.814-7.025c-0.927-0.584-1.982-1.098-3.092-1.148     c-1.311-0.062-2.651,0.358-3.815,0.927c-0.75,0.366-1.458,0.806-2.142,1.28c-2.326,1.615-5.372,2.33-8.936,2.824     c1.672-0.604,3.986-1.791,5.652-2.81c6.676-3.903,18.54-11.536,29.321-8.74c-1.242-1.317-2.824-2.562-4.441-3.377     c-5.534-2.796-12.217-0.923-17.136,2.283c-0.917,0.599-2.271,1.606-3.143,2.271c0.908-2.865,5.867-7.359,8.547-8.865     c-7.312-1.471-11.517,8.102-15.029,12.791c-1.464,1.953-3.699,3.467-5.914,4.451c0.98-1.926,2.218-3.822,3.357-5.666     c0.564-0.916,2.604-4.68,3.926-4.636c-6.807-0.233-9.418,11.007-13.077,13.493c-1.666,0.84-3.347,1.632-5.046,2.361     L234.474,319.414z" style="fill: rgb(112, 136, 93);"></path>
        </g>
        <path d="M68.022,208.048c2.127-2.282,4.124-4.572,6.645-6.807c3.596-3.193,8.251-6.232,13.847-7.18    c4.951-0.841,8.938-0.613,13.847-0.782l0.028,0.048c-2.129,2.283-4.127,4.571-6.645,6.81c-3.595,3.19-8.252,6.228-13.845,7.177    c-4.954,0.84-9.096,0.273-13.85,0.779" style="fill: rgb(112, 136, 93);"></path>
        <path d="M122.136,309.925c1.417-3.967,2.968-7.829,3.949-12.076c1.4-6.053,1.578-12.84-2.245-18.381    c-3.385-4.903-7.453-7.981-11.802-12.198l-0.093,0.021c-1.418,3.969-2.968,7.832-3.949,12.074    c-1.399,6.059-1.578,12.842,2.245,18.381c3.383,4.907,8.108,7.782,11.801,12.2" style="fill: rgb(112, 136, 93);"></path>
        <path d="M93.344,289.828c-2.705-2.127-5.291-4.328-8.324-6.187c-4.322-2.651-9.527-4.548-14.807-3.022    c-4.672,1.35-8.109,3.7-12.498,5.973l-0.01,0.076c2.704,2.127,5.293,4.326,8.323,6.186c4.327,2.652,9.53,4.548,14.807,3.023    c4.673-1.346,8.124-4.258,12.5-5.972" style="fill: rgb(112, 136, 93);"></path>
        <path d="M62.71,254.112c-1.676-1.913-3.254-3.864-5.205-5.631c-2.778-2.517-6.303-4.606-10.346-4.22    c-3.58,0.341-6.397,1.582-9.898,2.632l-0.018,0.056c1.675,1.916,3.256,3.865,5.203,5.633c2.781,2.518,6.304,4.605,10.347,4.219    c3.579-0.34,6.485-1.983,9.898-2.631" style="fill: rgb(112, 136, 93);"></path>
        <path d="M75.142,271.772c1.421-1.95,2.898-3.821,4.124-5.998c1.748-3.099,2.943-6.799,1.738-10.461    c-1.066-3.241-2.805-5.592-4.511-8.61l-0.055-0.004c-1.421,1.948-2.897,3.823-4.123,5.994c-1.75,3.104-2.944,6.803-1.739,10.465    c1.063,3.241,3.195,5.586,4.509,8.611" style="fill: rgb(112, 136, 93);"></path>
        
            <ellipse transform="matrix(-0.9478 -0.3189 0.3189 -0.9478 114.8471 216.9515)" cx="75.182" cy="99.075" rx="4.162" ry="1.249" style="fill: rgb(112, 136, 93);"></ellipse>
        
            <ellipse transform="matrix(-0.2254 0.9743 -0.9743 -0.2254 181.5407 37.3018)" cx="75.941" cy="90.822" rx="4.163" ry="1.248" style="fill: rgb(112, 136, 93);"></ellipse>
        </g>
        <g id="__id30_s0rb6s3h5d">
        <path d="M172.251,23.583c1.686-2.125,4.78-2.484,6.908-0.797c2.127,1.683,2.486,4.78,0.801,6.906    c-1.69,2.132-4.783,2.489-6.912,0.804C170.922,28.811,170.562,25.714,172.251,23.583z" style="fill: rgb(178, 222, 240);"></path>
        <path d="M141.779,27.517c1.479-1.862,4.189-2.178,6.058-0.695c1.856,1.468,2.177,4.188,0.698,6.05    c-1.473,1.864-4.193,2.175-6.049,0.702C140.613,32.094,140.304,29.381,141.779,27.517z" style="fill: rgb(178, 222, 240);"></path>
        <path d="M94.099,53.867c1.479-1.862,4.189-2.178,6.057-0.695c1.856,1.468,2.177,4.188,0.699,6.05    c-1.474,1.864-4.193,2.176-6.049,0.702C92.933,58.444,92.624,55.731,94.099,53.867z" style="fill: rgb(178, 222, 240);"></path>
        <g>
            <path d="M154.48,44.319c-2.264-1.065-2.741-4.018-1.417-6.033c0.606,1.094,0.848,1.664,1.071,2.302     C154.452,41.51,154.922,42.85,154.48,44.319z" style="fill: rgb(178, 222, 240);"></path>
        </g>
        <g>
            <path d="M147.398,42.562c2.498,0.116,4.302-2.271,4.071-4.672c-1.045,0.686-1.523,1.077-2.021,1.537     C148.736,40.091,147.694,41.056,147.398,42.562z" style="fill: rgb(178, 222, 240);"></path>
        </g>
        <g>
            <path d="M135.25,20.665c2.246-3.103,6.82-2.979,9.469-0.418c-1.816,0.601-2.739,0.802-3.766,0.954     C139.481,21.418,137.336,21.745,135.25,20.665z" style="fill: rgb(178, 222, 240);"></path>
        </g>
        <g>
            <path d="M139.906,10.52c-0.887,3.723,2.192,7.11,5.86,7.446c-0.732-1.768-1.181-2.596-1.732-3.473     C143.237,13.23,142.083,11.393,139.906,10.52z" style="fill: rgb(178, 222, 240);"></path>
        </g>
        <path d="M323.127,238.528c0.811-1.551,2.729-2.157,4.286-1.347c1.552,0.811,2.156,2.729,1.348,4.283    c-0.812,1.557-2.731,2.16-4.286,1.351C322.921,242.005,322.316,240.085,323.127,238.528z" style="fill: rgb(178, 222, 240);"></path>
        <path d="M301.437,75.217c0.994-1.903,3.344-2.646,5.253-1.651c1.896,0.99,2.645,3.345,1.649,5.249    c-0.992,1.905-3.35,2.642-5.246,1.652C301.181,79.472,300.444,77.122,301.437,75.217z" style="fill: rgb(178, 222, 240);"></path>
        <g>
            <path d="M341.622,210.142c0.173,1.488,0.463,3.23,1.359,4.499c0.413,0.588,1.108,1.196,1.793,1.458     c2.021,0.765,3.213-1.609,2.011-2.955c-1.093-1.219-2.534-2.418-3.359-3.613c-0.912-1.336-1.444-2.875-1.554-4.455     C341.759,203.375,341.409,208.33,341.622,210.142z" style="fill: rgb(178, 222, 240);"></path>
        </g>
        <g>
            <path d="M344.784,208.3c0.598,0.882,1.393,1.636,2.396,2.014c0.626,0.236,1.787,0.549,2.407,0.128     c0.95-0.646,0.489-1.612-0.257-2.077c-2.034-1.267-4.839-0.914-5.866-3.535c-0.051-0.125-0.038-0.004-0.048,0.035     c-0.047,0.188,0.12,0.565,0.169,0.744c0.163,0.615,0.381,1.215,0.668,1.783C344.409,207.703,344.584,208.007,344.784,208.3z" style="fill: rgb(178, 222, 240);"></path>
        </g>
        <g>
            <path d="M332.182,209.33c-1.067,1.053-2.383,2.231-3.877,2.66c-0.688,0.198-1.611,0.241-2.311,0.016     c-2.058-0.666-1.498-3.268,0.28-3.564c1.615-0.268,3.488-0.3,4.881-0.718c1.55-0.468,2.928-1.337,3.999-2.501     C336.306,203.964,333.481,208.05,332.182,209.33z" style="fill: rgb(178, 222, 240);"></path>
        </g>
        <g>
            <path d="M330.866,205.916c-1.018,0.313-2.108,0.403-3.13,0.069c-0.64-0.205-1.734-0.688-1.957-1.405     c-0.342-1.1,0.626-1.562,1.497-1.461c2.38,0.286,4.348,2.314,6.79,0.91c0.116-0.062,0.029,0.021,0.016,0.061     c-0.081,0.175-0.447,0.367-0.597,0.477c-0.516,0.375-1.059,0.707-1.637,0.975C331.533,205.684,331.202,205.812,330.866,205.916z" style="fill: rgb(178, 222, 240);"></path>
        </g>
        <g>
            <path d="M336.072,116.346c1.074,1.042,2.4,2.21,3.896,2.626c0.69,0.191,1.617,0.227,2.312-0.006     c2.05-0.686,1.47-3.28-0.313-3.56c-1.616-0.255-3.491-0.271-4.884-0.676c-1.556-0.457-2.941-1.309-4.023-2.467     C331.897,111.018,334.759,115.077,336.072,116.346z" style="fill: rgb(178, 222, 240);"></path>
        </g>
        <g>
            <path d="M337.356,112.919c1.021,0.306,2.109,0.388,3.128,0.046c0.637-0.213,1.73-0.707,1.944-1.425     c0.331-1.101-0.638-1.559-1.511-1.449c-2.376,0.308-4.327,2.354-6.782,0.971c-0.112-0.062-0.028,0.026-0.012,0.061     c0.082,0.176,0.448,0.363,0.599,0.469c0.519,0.372,1.065,0.699,1.646,0.961C336.685,112.693,337.017,112.818,337.356,112.919z" style="fill: rgb(178, 222, 240);"></path>
        </g>
        <g>
            <path d="M293.272,291.82c-0.684,1.335-1.414,2.942-1.375,4.496c0.019,0.717,0.254,1.609,0.68,2.208     c1.253,1.763,3.566,0.449,3.314-1.337c-0.229-1.621-0.762-3.418-0.776-4.869c-0.019-1.619,0.395-3.195,1.188-4.566     C297.155,286.274,294.106,290.197,293.272,291.82z" style="fill: rgb(178, 222, 240);"></path>
        </g>
        <g>
            <path d="M296.926,292.05c0.003,1.066,0.246,2.135,0.868,3.009c0.391,0.547,1.182,1.448,1.932,1.446     c1.147-0.008,1.305-1.067,0.943-1.871c-0.984-2.182-3.512-3.452-2.904-6.201c0.025-0.129-0.031-0.021-0.062,0.005     c-0.144,0.129-0.216,0.535-0.272,0.712c-0.205,0.602-0.357,1.219-0.438,1.85C296.946,291.347,296.923,291.699,296.926,292.05z" style="fill: rgb(178, 222, 240);"></path>
        </g>
        <g>
            <path d="M286.399,283.119c-1.474,0.271-3.225,0.506-4.699,0.021c-0.682-0.225-1.469-0.709-1.918-1.287     c-1.328-1.708,0.598-3.544,2.234-2.789c1.485,0.688,3.055,1.714,4.438,2.148c1.546,0.484,3.174,0.541,4.715,0.18     C292.831,281.001,288.196,282.791,286.399,283.119z" style="fill: rgb(178, 222, 240);"></path>
        </g>
        <g>
            <path d="M287.233,279.556c-1.019-0.312-1.971-0.854-2.629-1.7c-0.41-0.528-1.049-1.547-0.828-2.265     c0.338-1.098,1.396-0.94,2.062-0.362c1.808,1.571,2.296,4.354,5.104,4.567c0.13,0.014,0.012,0.037-0.022,0.058     c-0.165,0.101-0.575,0.051-0.76,0.058c-0.638,0.022-1.272-0.008-1.902-0.113C287.915,279.738,287.571,279.66,287.233,279.556z" style="fill: rgb(178, 222, 240);"></path>
        </g>
        <g>
            <path d="M252.009,31c1.438-0.419,3.109-0.993,4.211-2.086c0.51-0.506,0.998-1.293,1.139-2.01     c0.424-2.122-2.119-2.901-3.244-1.494c-1.022,1.279-1.965,2.9-3.008,3.909c-1.166,1.125-2.594,1.907-4.137,2.272     C245.313,31.985,250.256,31.508,252.009,31z" style="fill: rgb(178, 222, 240);"></path>
        </g>
        <g>
            <path d="M247.851,43.198c0.598,1.374,1.225,3.026,1.086,4.572c-0.062,0.714-0.355,1.594-0.817,2.16     c-1.362,1.681-3.587,0.224-3.222-1.542c0.33-1.604,0.976-3.365,1.086-4.812c0.119-1.616-0.193-3.214-0.897-4.634     C244.331,37.416,247.123,41.523,247.851,43.198z" style="fill: rgb(178, 222, 240);"></path>
        </g>
        <g>
            <path d="M324.446,123.018c0.036,1.499,0,3.264-0.706,4.647c-0.328,0.639-0.93,1.344-1.568,1.699     c-1.892,1.045-3.409-1.138-2.411-2.64c0.909-1.363,2.165-2.753,2.811-4.056c0.717-1.452,1.021-3.051,0.901-4.629     C323.344,116.341,324.395,121.197,324.446,123.018z" style="fill: rgb(178, 222, 240);"></path>
        </g>
        <g>
            <path d="M321.05,121.646c-0.465,0.958-1.144,1.817-2.085,2.334c-0.587,0.326-1.689,0.796-2.365,0.467     c-1.032-0.5-0.715-1.525-0.043-2.089c1.834-1.543,4.661-1.598,5.304-4.337c0.033-0.129,0.039-0.007,0.054,0.03     c0.072,0.178-0.038,0.577-0.062,0.758c-0.075,0.634-0.205,1.257-0.405,1.861C321.336,120.999,321.206,121.329,321.05,121.646z" style="fill: rgb(178, 222, 240);"></path>
        </g>
        <path d="M194.96,22.921c0.784-1.25,2.432-1.631,3.686-0.847c1.244,0.779,1.627,2.431,0.847,3.683    c-0.783,1.249-2.437,1.625-3.683,0.846C194.558,25.819,194.179,24.171,194.96,22.921z" style="fill: rgb(178, 222, 240);"></path>
        <path d="M251.101,38.19c1.158-2.954,4.498-4.412,7.453-3.256c2.955,1.157,4.418,4.495,3.26,7.453    c-1.158,2.961-4.498,4.416-7.455,3.262C251.403,44.491,249.942,41.151,251.101,38.19z" style="fill: rgb(178, 222, 240);"></path>
        <path d="M359.543,163.856c0.811-1.553,2.731-2.157,4.284-1.346c1.554,0.809,2.159,2.729,1.349,4.283    c-0.811,1.559-2.729,2.16-4.286,1.352C359.337,167.335,358.734,165.413,359.543,163.856z" style="fill: rgb(178, 222, 240);"></path>
        <g>
            <path d="M339.24,243.113c-1.8,1.812-4.803,1.258-6.283-0.703c1.259-0.207,1.887-0.244,2.579-0.238     C336.53,242.18,337.974,242.187,339.24,243.113z" style="fill: rgb(178, 222, 240);"></path>
        </g>
        <g>
            <path d="M335.125,249.318c0.968-2.363-0.709-4.91-3.092-5.513c0.297,1.239,0.51,1.832,0.781,2.468     C333.209,247.187,333.779,248.517,335.125,249.318z" style="fill: rgb(178, 222, 240);"></path>
        </g>
        <g>
            <path d="M314.125,233.65c-0.067,2.555,2.405,4.34,4.846,4.059c-0.719-1.054-1.126-1.533-1.606-2.031     C316.672,234.962,315.667,233.923,314.125,233.65z" style="fill: rgb(178, 222, 240);"></path>
        </g>
        <g>
            <path d="M312.476,240.91c1.039-2.332,4.043-2.877,6.125-1.568c-1.104,0.643-1.681,0.896-2.327,1.137     C315.341,240.824,313.986,241.332,312.476,240.91z" style="fill: rgb(178, 222, 240);"></path>
        </g>
        <path d="M345.26,173.335c-0.715-0.75-0.688-1.939,0.062-2.658c0.748-0.711,1.939-0.686,2.653,0.064    c0.718,0.751,0.688,1.941-0.062,2.654C347.166,174.112,345.974,174.083,345.26,173.335z" style="fill: rgb(178, 222, 240);"></path>
        <path d="M201.661,34.755c-0.654-0.804-0.536-1.987,0.27-2.644c0.801-0.651,1.987-0.53,2.643,0.273    c0.654,0.804,0.529,1.988-0.271,2.64C203.495,35.68,202.312,35.559,201.661,34.755z" style="fill: rgb(178, 222, 240);"></path>
        <path d="M304.458,284.324c-0.713-0.75-0.689-1.939,0.064-2.658c0.746-0.713,1.938-0.685,2.651,0.063    c0.717,0.75,0.688,1.94-0.062,2.653C306.361,285.102,305.173,285.072,304.458,284.324z" style="fill: rgb(178, 222, 240);"></path>
        <path d="M367.205,117.589c0.479-0.919,1.612-1.278,2.534-0.797c0.915,0.477,1.274,1.614,0.795,2.532    c-0.478,0.92-1.615,1.275-2.529,0.797C367.082,119.641,366.725,118.507,367.205,117.589z" style="fill: rgb(178, 222, 240);"></path>
        <path d="M315.208,149.327c0.48-0.92,1.614-1.279,2.534-0.798c0.917,0.478,1.274,1.614,0.797,2.532    c-0.479,0.919-1.615,1.275-2.53,0.797C315.087,151.379,314.73,150.245,315.208,149.327z" style="fill: rgb(178, 222, 240);"></path>
        <path d="M279.092,53.835c1.037-1.99,3.491-2.765,5.483-1.726c1.98,1.033,2.76,3.492,1.723,5.479    c-1.035,1.989-3.497,2.758-5.479,1.726C278.827,58.273,278.058,55.822,279.092,53.835z" style="fill: rgb(178, 222, 240);"></path>
        <path d="M278.558,64.785c0.474-0.909,1.594-1.263,2.508-0.789c0.904,0.473,1.261,1.597,0.785,2.506    c-0.474,0.908-1.599,1.26-2.502,0.787C278.437,66.815,278.083,65.693,278.558,64.785z" style="fill: rgb(178, 222, 240);"></path>
        <path d="M292.571,52.476c0.477-0.909,1.597-1.264,2.509-0.788c0.905,0.472,1.262,1.596,0.786,2.504    c-0.473,0.909-1.598,1.261-2.502,0.789C292.451,54.506,292.099,53.384,292.571,52.476z" style="fill: rgb(178, 222, 240);"></path>
        <path d="M342.671,199.882c0.291-0.557,0.982-0.777,1.544-0.484c0.558,0.289,0.777,0.982,0.483,1.541    c-0.293,0.561-0.983,0.775-1.54,0.486C342.596,201.132,342.379,200.441,342.671,199.882z" style="fill: rgb(178, 222, 240);"></path>
        <circle cx="289.452" cy="143.011" r="1.144" style="fill: rgb(178, 222, 240);"></circle>
        <circle cx="329.894" cy="272.959" r="1.144" style="fill: rgb(178, 222, 240);"></circle>
        <circle cx="296.171" cy="263.598" r="1.144" style="fill: rgb(178, 222, 240);"></circle>
        <circle cx="334.924" cy="199.006" r="1.143" style="fill: rgb(178, 222, 240);"></circle>
        <path d="M312.137,77.632c0.29-0.559,0.982-0.777,1.543-0.486c0.558,0.293,0.776,0.983,0.484,1.543    c-0.291,0.56-0.984,0.774-1.541,0.485C312.062,78.881,311.845,78.191,312.137,77.632z" style="fill: rgb(178, 222, 240);"></path>
        <circle cx="203.649" cy="15.532" r="1.143" style="fill: rgb(178, 222, 240);"></circle>
        <path d="M147.392,18.998c0.336-0.534,1.042-0.696,1.577-0.363c0.532,0.334,0.696,1.043,0.363,1.577    c-0.336,0.535-1.043,0.695-1.575,0.362C147.22,20.237,147.058,19.532,147.392,18.998z" style="fill: rgb(178, 222, 240);"></path>
        <path d="M151.245,35.662c0.154-0.474,0.664-0.735,1.137-0.583c0.474,0.156,0.736,0.666,0.581,1.139    c-0.153,0.474-0.664,0.732-1.134,0.581C151.351,36.644,151.093,36.134,151.245,35.662z" style="fill: rgb(178, 222, 240);"></path>
        <path d="M211.421,326.843c-1.648,2.152-4.736,2.564-6.895,0.914c-2.156-1.646-2.567-4.736-0.918-6.893    c1.65-2.16,4.738-2.568,6.896-0.922C212.66,321.593,213.073,324.683,211.421,326.843z" style="fill: rgb(178, 222, 240);"></path>
        <path d="M241.799,321.132c-1.444,1.888-4.151,2.25-6.044,0.8c-1.883-1.437-2.249-4.149-0.803-6.037    c1.441-1.89,4.156-2.247,6.037-0.808C242.886,316.537,243.243,319.244,241.799,321.132z" style="fill: rgb(178, 222, 240);"></path>
        <g>
            <path d="M228.812,304.55c2.282,1.025,2.811,3.971,1.521,6.009c-0.625-1.084-0.876-1.649-1.109-2.284     C228.89,307.358,228.397,306.028,228.812,304.55z" style="fill: rgb(178, 222, 240);"></path>
        </g>
        <g>
            <path d="M235.924,306.187c-2.5-0.074-4.264,2.344-3.991,4.74c1.034-0.703,1.506-1.104,1.996-1.572     C234.628,308.679,235.653,307.697,235.924,306.187z" style="fill: rgb(178, 222, 240);"></path>
        </g>
        <g>
            <path d="M248.444,327.873c-2.191,3.141-6.768,3.096-9.461,0.58c1.807-0.633,2.726-0.85,3.75-1.019     C244.201,327.19,246.34,326.828,248.444,327.873z" style="fill: rgb(178, 222, 240);"></path>
        </g>
        <g>
            <path d="M243.963,338.097c0.822-3.737-2.313-7.072-5.987-7.346c0.764,1.754,1.227,2.576,1.793,3.441     C240.586,335.442,241.772,337.259,243.963,338.097z" style="fill: rgb(178, 222, 240);"></path>
        </g>
        <g>
            <path d="M38.86,141.956c-0.2-1.486-0.519-3.222-1.436-4.475c-0.424-0.58-1.129-1.179-1.818-1.427     c-2.035-0.731-3.184,1.667-1.958,2.989c1.112,1.201,2.574,2.374,3.417,3.556c0.938,1.319,1.498,2.849,1.631,4.427     C38.838,148.726,39.104,143.764,38.86,141.956z" style="fill: rgb(178, 222, 240);"></path>
        </g>
        <g>
            <path d="M35.729,143.853c-0.613-0.872-1.42-1.611-2.431-1.974c-0.63-0.226-1.795-0.516-2.409-0.085     c-0.94,0.66-0.462,1.62,0.291,2.072c2.056,1.23,4.855,0.832,5.927,3.436c0.052,0.122,0.038,0,0.047-0.038     c0.044-0.188-0.129-0.563-0.181-0.741c-0.176-0.612-0.403-1.207-0.697-1.772C36.115,144.443,35.933,144.141,35.729,143.853z" style="fill: rgb(178, 222, 240);"></path>
        </g>
        <g>
            <path d="M48.312,142.606c1.05-1.071,2.345-2.271,3.831-2.726c0.686-0.211,1.61-0.268,2.31-0.055     c2.067,0.632,1.554,3.241-0.219,3.567c-1.61,0.297-3.483,0.36-4.867,0.803c-1.542,0.495-2.905,1.387-3.956,2.57     C44.279,148.041,47.036,143.908,48.312,142.606z" style="fill: rgb(178, 222, 240);"></path>
        </g>
        <g>
            <path d="M49.687,145.999c1.011-0.332,2.101-0.441,3.128-0.125c0.641,0.195,1.747,0.66,1.98,1.373     c0.358,1.093-0.599,1.576-1.473,1.486c-2.384-0.245-4.387-2.239-6.804-0.794c-0.115,0.066-0.031-0.022-0.015-0.059     c0.077-0.177,0.44-0.375,0.588-0.485c0.507-0.384,1.046-0.726,1.619-1.002C49.023,146.242,49.351,146.109,49.687,145.999z" style="fill: rgb(178, 222, 240);"></path>
        </g>
        <g>
            <path d="M46.016,235.643c-1.094-1.024-2.44-2.169-3.943-2.56c-0.695-0.18-1.62-0.197-2.31,0.047     c-2.04,0.721-1.413,3.305,0.373,3.554c1.621,0.228,3.495,0.209,4.896,0.593c1.562,0.43,2.962,1.258,4.063,2.396     C50.28,240.899,47.348,236.889,46.016,235.643z" style="fill: rgb(178, 222, 240);"></path>
        </g>
        <g>
            <path d="M44.791,239.091c-1.027-0.289-2.119-0.352-3.131,0.009c-0.631,0.224-1.717,0.735-1.919,1.458     c-0.311,1.105,0.666,1.548,1.536,1.423c2.371-0.349,4.287-2.427,6.764-1.087c0.117,0.061,0.029-0.025,0.013-0.062     c-0.085-0.174-0.457-0.354-0.609-0.457c-0.523-0.363-1.075-0.682-1.661-0.934C45.463,239.306,45.131,239.187,44.791,239.091z" style="fill: rgb(178, 222, 240);"></path>
        </g>
        <g>
            <path d="M85.802,59.461c0.661-1.345,1.364-2.966,1.298-4.518c-0.031-0.717-0.282-1.607-0.717-2.196     c-1.283-1.741-3.572-0.388-3.291,1.393c0.255,1.617,0.818,3.404,0.86,4.856c0.045,1.619-0.34,3.201-1.11,4.585     C82.017,65.073,84.998,61.099,85.802,59.461z" style="fill: rgb(178, 222, 240);"></path>
        </g>
        <g>
            <path d="M82.146,59.294c-0.023-1.066-0.282-2.129-0.92-2.993c-0.398-0.539-1.205-1.428-1.954-1.411     c-1.149,0.024-1.287,1.088-0.913,1.883c1.023,2.166,3.57,3.393,3.011,6.153c-0.024,0.129,0.033,0.021,0.062-0.005     c0.142-0.132,0.206-0.54,0.262-0.716c0.194-0.606,0.337-1.227,0.407-1.86C82.137,60,82.155,59.647,82.146,59.294z" style="fill: rgb(178, 222, 240);"></path>
        </g>
        <g>
            <path d="M92.823,68.044c1.47-0.295,3.217-0.562,4.699-0.102c0.686,0.213,1.482,0.684,1.941,1.255     c1.356,1.685-0.537,3.552-2.187,2.826c-1.498-0.66-3.083-1.661-4.475-2.071c-1.554-0.458-3.182-0.488-4.717-0.098     C86.431,70.271,91.034,68.403,92.823,68.044z" style="fill: rgb(178, 222, 240);"></path>
        </g>
        <g>
            <path d="M92.051,71.622c1.024,0.295,1.986,0.817,2.659,1.654c0.419,0.523,1.073,1.53,0.865,2.25     c-0.316,1.104-1.38,0.966-2.054,0.401c-1.833-1.542-2.368-4.318-5.18-4.481c-0.131-0.011-0.012-0.037,0.021-0.059     c0.165-0.103,0.574-0.061,0.759-0.07c0.635-0.033,1.272-0.013,1.902,0.081C91.367,71.45,91.711,71.523,92.051,71.622z" style="fill: rgb(178, 222, 240);"></path>
        </g>
        <g>
            <path d="M131.526,319.539c-1.432,0.443-3.092,1.045-4.175,2.157c-0.5,0.515-0.975,1.31-1.104,2.029     c-0.385,2.128,2.171,2.864,3.271,1.438c1-1.297,1.914-2.935,2.94-3.961c1.146-1.145,2.561-1.949,4.096-2.342     C138.205,318.438,133.269,319,131.526,319.539z" style="fill: rgb(178, 222, 240);"></path>
        </g>
        <g>
            <path d="M135.475,307.271c-0.62-1.363-1.275-3.004-1.164-4.553c0.052-0.717,0.331-1.6,0.781-2.174     c1.334-1.703,3.583-0.285,3.249,1.486c-0.303,1.61-0.918,3.381-1.003,4.829c-0.093,1.617,0.247,3.21,0.974,4.617     C139.094,312.992,136.231,308.933,135.475,307.271z" style="fill: rgb(178, 222, 240);"></path>
        </g>
        <g>
            <path d="M57.526,228.773c-0.065-1.498-0.058-3.264,0.626-4.66c0.315-0.645,0.904-1.357,1.538-1.725     c1.874-1.077,3.428,1.078,2.456,2.598c-0.884,1.379-2.117,2.79-2.738,4.104c-0.692,1.465-0.972,3.068-0.825,4.645     C58.74,235.431,57.606,230.593,57.526,228.773z" style="fill: rgb(178, 222, 240);"></path>
        </g>
        <g>
            <path d="M60.943,230.087c0.448-0.965,1.113-1.836,2.045-2.369c0.581-0.336,1.676-0.825,2.356-0.51     c1.042,0.482,0.741,1.515,0.079,2.09c-1.808,1.574-4.631,1.677-5.228,4.428c-0.031,0.13-0.037,0.007-0.053-0.029     c-0.076-0.177,0.027-0.576,0.048-0.76c0.065-0.635,0.184-1.26,0.373-1.868C60.668,230.74,60.793,230.408,60.943,230.087z" style="fill: rgb(178, 222, 240);"></path>
        </g>
        <path d="M56.865,113.257c-0.783,1.566-2.693,2.203-4.261,1.42c-1.568-0.783-2.206-2.692-1.422-4.26    c0.785-1.571,2.694-2.206,4.262-1.424C57.012,109.777,57.65,111.686,56.865,113.257z" style="fill: rgb(178, 222, 240);"></path>
        <path d="M81.348,276.173c-0.96,1.922-3.297,2.703-5.224,1.74c-1.913-0.957-2.7-3.299-1.74-5.22    c0.96-1.921,3.304-2.698,5.217-1.741C81.53,271.916,82.309,274.251,81.348,276.173z" style="fill: rgb(178, 222, 240);"></path>
        <path d="M188.705,326.64c-0.762,1.262-2.402,1.671-3.669,0.908c-1.259-0.758-1.67-2.402-0.909-3.668    c0.761-1.262,2.406-1.666,3.664-0.908C189.058,323.734,189.464,325.376,188.705,326.64z" style="fill: rgb(178, 222, 240);"></path>
        <path d="M132.31,312.332c-1.106,2.974-4.421,4.489-7.396,3.385c-2.974-1.106-4.493-4.42-3.385-7.396    c1.107-2.98,4.422-4.492,7.397-3.389C131.9,306.039,133.418,309.353,132.31,312.332z" style="fill: rgb(178, 222, 240);"></path>
        <circle cx="18.891" cy="187.121" r="3.176" style="fill: rgb(178, 222, 240);"></circle>
        <g>
            <path d="M40.678,108.948c1.768-1.842,4.778-1.339,6.293,0.596c-1.255,0.229-1.883,0.277-2.575,0.283     C43.402,109.836,41.956,109.854,40.678,108.948z" style="fill: rgb(178, 222, 240);"></path>
        </g>
        <g>
            <path d="M44.685,102.674c-0.927,2.378,0.793,4.898,3.187,5.458c-0.319-1.234-0.541-1.824-0.826-2.455     C46.637,104.772,46.044,103.453,44.685,102.674z" style="fill: rgb(178, 222, 240);"></path>
        </g>
        <g>
            <path d="M65.95,117.981c0.024-2.553-2.479-4.299-4.915-3.975c0.737,1.041,1.152,1.515,1.643,2.003     C63.381,116.71,64.403,117.734,65.95,117.981z" style="fill: rgb(178, 222, 240);"></path>
        </g>
        <g>
            <path d="M67.473,110.694c-1,2.348-3.993,2.946-6.095,1.672c1.091-0.659,1.663-0.925,2.307-1.176     C64.611,110.829,65.957,110.3,67.473,110.694z" style="fill: rgb(178, 222, 240);"></path>
        </g>
        <path d="M35.851,178.821c0.728,0.737,0.722,1.927-0.017,2.657c-0.734,0.727-1.927,0.718-2.655-0.02    c-0.729-0.736-0.719-1.929,0.017-2.653C33.935,178.076,35.124,178.085,35.851,178.821z" style="fill: rgb(178, 222, 240);"></path>
        <path d="M181.804,314.919c0.667,0.793,0.568,1.979-0.226,2.648c-0.789,0.665-1.978,0.564-2.646-0.227    c-0.668-0.793-0.565-1.979,0.226-2.645C179.953,314.027,181.136,314.128,181.804,314.919z" style="fill: rgb(178, 222, 240);"></path>
        <path d="M74.748,67.149c0.728,0.737,0.722,1.927-0.017,2.658c-0.735,0.725-1.928,0.718-2.655-0.019    c-0.729-0.738-0.719-1.929,0.017-2.654C72.832,66.404,74.02,66.413,74.748,67.149z" style="fill: rgb(178, 222, 240);"></path>
        <path d="M14.865,234.934c-0.463,0.928-1.591,1.306-2.521,0.841c-0.923-0.463-1.303-1.592-0.839-2.52    c0.463-0.928,1.594-1.303,2.517-0.84C14.953,232.88,15.328,234.007,14.865,234.934z" style="fill: rgb(178, 222, 240);"></path>
        <path d="M66.309,202.31c-0.463,0.928-1.591,1.307-2.521,0.842c-0.923-0.463-1.302-1.592-0.839-2.52    c0.463-0.928,1.594-1.303,2.518-0.84C66.397,200.257,66.772,201.384,66.309,202.31z" style="fill: rgb(178, 222, 240);"></path>
        <path d="M104.056,297.169c-1.002,2.009-3.442,2.826-5.453,1.818c-1.999-0.998-2.819-3.441-1.816-5.447    c1.002-2.006,3.449-2.816,5.447-1.817C104.246,292.728,105.057,295.166,104.056,297.169z" style="fill: rgb(178, 222, 240);"></path>
        <path d="M287.056,295.169c-1.003,2.009-3.441,2.826-5.453,1.818c-1.998-0.998-2.818-3.441-1.816-5.447    s3.449-2.816,5.447-1.817C287.246,290.728,288.058,293.166,287.056,295.169z" style="fill: rgb(178, 222, 240);"></path>
        <path d="M104.403,286.212c-0.458,0.916-1.573,1.289-2.493,0.83c-0.914-0.457-1.289-1.574-0.831-2.49    s1.577-1.288,2.49-0.831C104.49,284.181,104.861,285.296,104.403,286.212z" style="fill: rgb(178, 222, 240);"></path>
        <path d="M90.601,298.759c-0.458,0.916-1.573,1.291-2.493,0.83c-0.914-0.457-1.289-1.573-0.83-2.489    c0.458-0.917,1.577-1.288,2.49-0.831C90.688,296.728,91.059,297.843,90.601,298.759z" style="fill: rgb(178, 222, 240);"></path>
        <circle cx="36.962" cy="151.722" r="1.143" style="fill: rgb(178, 222, 240);"></circle>
        <path d="M93.193,208.695c-0.282,0.562-0.968,0.795-1.534,0.514c-0.562-0.283-0.793-0.972-0.512-1.535    c0.282-0.562,0.971-0.791,1.533-0.51C93.247,207.446,93.476,208.132,93.193,208.695z" style="fill: rgb(178, 222, 240);"></path>
        <circle cx="49.51" cy="78.947" r="1.143" style="fill: rgb(178, 222, 240);"></circle>
        <circle cx="83.388" cy="87.73" r="1.143" style="fill: rgb(178, 222, 240);"></circle>
        <circle cx="45.746" cy="152.977" r="1.143" style="fill: rgb(178, 222, 240);"></circle>
        <circle cx="69.585" cy="273.431" r="1.143" style="fill: rgb(178, 222, 240);"></circle>
        <circle cx="180.144" cy="334.175" r="1.143" style="fill: rgb(178, 222, 240);"></circle>
        <path d="M236.333,329.746c-0.326,0.541-1.027,0.715-1.57,0.392c-0.537-0.325-0.714-1.03-0.39-1.57    c0.326-0.54,1.03-0.713,1.567-0.39C236.483,328.503,236.658,329.207,236.333,329.746z" style="fill: rgb(178, 222, 240);"></path>
        <path d="M232.196,313.151c-0.146,0.478-0.651,0.746-1.129,0.603c-0.476-0.146-0.746-0.652-0.601-1.129    s0.652-0.744,1.125-0.601C232.073,312.171,232.34,312.677,232.196,313.151z" style="fill: rgb(178, 222, 240);"></path>
        </g>
    </g>
</svg>